<?xml version="1.0" encoding="UTF-8" standalone="no"?>
<!-- Created with Inkscape (http://www.inkscape.org/) -->

<svg
   xmlns:dc="http://purl.org/dc/elements/1.1/"
   xmlns:cc="http://creativecommons.org/ns#"
   xmlns:rdf="http://www.w3.org/1999/02/22-rdf-syntax-ns#"
   xmlns:svg="http://www.w3.org/2000/svg"
   xmlns="http://www.w3.org/2000/svg"
   xmlns:sodipodi="http://sodipodi.sourceforge.net/DTD/sodipodi-0.dtd"
   xmlns:inkscape="http://www.inkscape.org/namespaces/inkscape"
   width="3.175mm"
   height="3.175mm"
   viewBox="0 0 3.175 3.175"
   version="1.1"
   id="svg8"
   inkscape:version="0.92.5 (2060ec1f9f, 2020-04-08)"
   sodipodi:docname="EU_flag.svg">
  <defs
     id="defs2" />
  <sodipodi:namedview
     id="base"
     pagecolor="#ffffff"
     bordercolor="#666666"
     borderopacity="1.0"
     inkscape:pageopacity="0.0"
     inkscape:pageshadow="2"
     inkscape:zoom="90.509668"
     inkscape:cx="9.6233757"
     inkscape:cy="6.1159946"
     inkscape:document-units="mm"
     inkscape:current-layer="layer1"
     showgrid="false"
     fit-margin-top="0"
     fit-margin-left="0"
     fit-margin-right="0"
     fit-margin-bottom="0"
     units="px"
     inkscape:window-width="3378"
     inkscape:window-height="1417"
     inkscape:window-x="54"
     inkscape:window-y="1072"
     inkscape:window-maximized="1" />
  <metadata
     id="metadata5">
    <rdf:RDF>
      <cc:Work
         rdf:about="">
        <dc:format>image/svg+xml</dc:format>
        <dc:type
           rdf:resource="http://purl.org/dc/dcmitype/StillImage" />
        <dc:title></dc:title>
      </cc:Work>
    </rdf:RDF>
  </metadata>
  <g
     inkscape:label="Ebene 1"
     inkscape:groupmode="layer"
     id="layer1"
     transform="translate(-84.591072,-55.019642)">
    <circle
       style="fill:#b3b3b3;stroke-width:0.30238095"
       id="path4531"
       cx="86.178574"
       cy="56.607143"
       r="1.5200955" />
    <circle
       style="fill:#003399;fill-opacity:1;stroke-width:0.81737345"
       id="path4533"
       cx="86.178574"
       cy="56.607143"
       r="1.4449259" />
    <path
       style="fill:#ffcc00;fill-opacity:1;stroke-width:0.00184659"
       d="m 86.116601,57.467319 c 0.014,-0.04273 0.01447,-0.04475 0.01131,-0.04777 -0.0018,-0.0017 -0.01897,-0.01447 -0.03812,-0.02829 l -0.03481,-0.02513 h 0.04721 0.04721 l 0.01438,-0.04429 c 0.0079,-0.02436 0.01479,-0.04429 0.0153,-0.04429 5.08e-4,0 0.0074,0.01993 0.0153,0.04429 l 0.01438,0.04429 h 0.04721 0.04721 l -0.03481,0.02513 c -0.01915,0.01382 -0.0363,0.02655 -0.03812,0.02829 -0.0032,0.003 -0.0027,0.005 0.01131,0.04777 l 0.01461,0.04461 -0.0058,-0.0041 c -0.0032,-0.0022 -0.01781,-0.01283 -0.03254,-0.02356 -0.01473,-0.01072 -0.02948,-0.0214 -0.03279,-0.02373 l -0.006,-0.0042 -0.03631,0.02645 c -0.01997,0.01455 -0.03731,0.02705 -0.03853,0.02779 -0.0012,7.4e-4 0.0044,-0.01873 0.01239,-0.04327 z m -0.408365,-0.06107 c 2.4e-5,-2.3e-4 0.0066,-0.02036 0.01452,-0.04474 0.008,-0.02438 0.01382,-0.04515 0.01302,-0.04617 -7.97e-4,-0.001 -0.01768,-0.01348 -0.03752,-0.0277 -0.01984,-0.01422 -0.03611,-0.02627 -0.03615,-0.02678 -4.4e-5,-5.08e-4 0.0209,-9.24e-4 0.04655,-9.24e-4 h 0.04663 l 0.01493,-0.04523 0.01493,-0.04523 0.01467,0.04523 0.01466,0.04523 0.0466,9.24e-4 0.0466,9.23e-4 -0.03696,0.02676 c -0.02033,0.01472 -0.03696,0.02762 -0.03696,0.02866 0,10e-4 0.0062,0.02097 0.01375,0.04428 0.0076,0.02331 0.01347,0.04266 0.01314,0.04299 -3.34e-4,3.33e-4 -0.01734,-0.01157 -0.03778,-0.02646 l -0.03718,-0.02706 -0.005,0.0033 c -0.0028,0.0018 -0.02021,0.01434 -0.03875,0.02785 -0.01853,0.01351 -0.03368,0.02437 -0.03366,0.02414 z m 0.904787,-0.02663 c -0.0198,-0.0146 -0.03701,-0.02701 -0.03824,-0.02758 -0.0012,-5.65e-4 -0.01896,0.01116 -0.03941,0.02606 -0.02044,0.0149 -0.03746,0.02679 -0.03782,0.02643 -3.61e-4,-3.61e-4 0.0055,-0.01973 0.01309,-0.04304 0.0076,-0.02331 0.01375,-0.04327 0.01375,-0.04435 0,-0.0011 -0.01655,-0.01398 -0.03679,-0.02866 l -0.03679,-0.0267 0.04643,-9.23e-4 0.04643,-9.24e-4 0.01467,-0.04523 0.01466,-0.04523 0.01493,0.04523 0.01493,0.04523 h 0.04663 c 0.02564,0 0.04659,4.16e-4 0.04654,9.24e-4 -5e-5,5.07e-4 -0.0163,0.01256 -0.03611,0.02678 -0.01981,0.01422 -0.0367,0.02668 -0.03753,0.0277 -8.4e-4,10e-4 0.0049,0.0215 0.01292,0.04612 0.0079,0.02435 0.01427,0.04437 0.01408,0.04449 -1.95e-4,1.2e-4 -0.01656,-0.01173 -0.03636,-0.02633 z m -1.192097,-0.265898 c 0.0043,-0.0111 0.0269,-0.0821 0.0269,-0.08436 0,-0.0015 -0.01702,-0.01508 -0.03781,-0.03012 l -0.03781,-0.02735 0.04763,-4.92e-4 0.04763,-4.91e-4 0.0126,-0.03829 c 0.0069,-0.02106 0.01343,-0.0412 0.01443,-0.04475 0.0023,-0.008 0.0011,-0.01072 0.01816,0.04201 l 0.0133,0.04109 h 0.0468 c 0.02574,0 0.04676,6.24e-4 0.04671,0.0014 -5.1e-5,7.62e-4 -0.01667,0.01332 -0.03693,0.02792 -0.02207,0.01589 -0.03684,0.02774 -0.03683,0.02954 4e-6,0.0017 0.0062,0.02168 0.01377,0.04449 0.0076,0.02281 0.01349,0.04175 0.01315,0.04208 -3.35e-4,3.36e-4 -0.0159,-0.01052 -0.03459,-0.02412 -0.01869,-0.0136 -0.03574,-0.02582 -0.03788,-0.02717 -0.0036,-0.0023 -0.0068,-3.18e-4 -0.04112,0.02465 -0.02047,0.0149 -0.03769,0.02709 -0.03826,0.02709 -5.72e-4,0 -5.01e-4,-0.0014 1.57e-4,-0.0031 z m 1.364378,6.61e-4 c 0.0045,-0.01175 0.02715,-0.08245 0.02715,-0.08478 0,-0.0018 -0.0149,-0.0137 -0.03682,-0.02944 -0.02025,-0.01454 -0.03687,-0.02706 -0.03693,-0.02782 -6e-5,-7.61e-4 0.02095,-0.0014 0.04669,-0.0014 h 0.0468 l 0.0133,-0.04109 c 0.01706,-0.05273 0.0159,-0.05003 0.01816,-0.04201 0.001,0.0036 0.0075,0.02369 0.01443,0.04475 l 0.0126,0.03829 0.04769,4.91e-4 0.04769,4.92e-4 -0.03787,0.02745 c -0.02272,0.01646 -0.03786,0.02866 -0.03786,0.03047 0,0.0017 0.0062,0.02169 0.01377,0.0445 0.0076,0.02281 0.01349,0.04174 0.01317,0.04207 -3.28e-4,3.27e-4 -0.0167,-0.01115 -0.03639,-0.0255 -0.01969,-0.01435 -0.03682,-0.02651 -0.03808,-0.02702 -0.0013,-5.08e-4 -0.01895,0.01121 -0.03932,0.02604 -0.02037,0.01483 -0.03751,0.02696 -0.03808,0.02696 -5.71e-4,0 -6.15e-4,-0.0011 -9.6e-5,-0.0025 z m -1.469501,-0.394697 c 7.65e-4,-0.0025 0.0072,-0.02222 0.01421,-0.0439 0.007,-0.02168 0.01243,-0.04042 0.01196,-0.04165 -4.7e-4,-0.0012 -0.01768,-0.01444 -0.03824,-0.02937 l -0.03739,-0.02714 0.04781,-1.3e-5 0.04781,-1.3e-5 0.01461,-0.04477 0.01461,-0.04477 0.01466,0.04475 0.01466,0.04475 0.04721,4.92e-4 0.04721,4.92e-4 -0.03678,0.0266 c -0.02023,0.01463 -0.03741,0.02714 -0.03817,0.02779 -7.62e-4,6.57e-4 0.0015,0.0099 0.0051,0.02049 0.0142,0.04205 0.02255,0.07 0.02053,0.06877 -0.0012,-7.11e-4 -0.01459,-0.01038 -0.02982,-0.02148 -0.01523,-0.0111 -0.03151,-0.02295 -0.03616,-0.02633 l -0.0085,-0.0061 -0.02939,0.02141 c -0.01617,0.01178 -0.03344,0.02435 -0.03839,0.02795 -0.0086,0.0062 -0.0089,0.0063 -0.0076,0.0021 z m 1.582651,-0.02157 c 0.0044,-0.01396 0.01102,-0.03411 0.01462,-0.04477 0.0062,-0.01828 0.0064,-0.01953 0.0033,-0.02179 -0.0018,-0.0013 -0.01893,-0.01379 -0.03809,-0.0277 l -0.03482,-0.02529 0.0471,-4.93e-4 0.0471,-4.92e-4 0.01466,-0.04475 0.01466,-0.04475 0.0146,0.04475 0.0146,0.04475 0.04731,4.91e-4 0.04731,4.92e-4 -0.03686,0.02663 c -0.02027,0.01465 -0.03725,0.02765 -0.03773,0.02889 -4.78e-4,0.0012 0.0054,0.0216 0.01311,0.04523 0.0077,0.02363 0.01377,0.04316 0.01351,0.04339 -2.55e-4,2.34e-4 -0.01746,-0.01192 -0.03823,-0.02702 l -0.03776,-0.02744 -0.0056,0.0042 c -0.0094,0.0071 -0.06643,0.04838 -0.06869,0.04974 -0.0012,7e-4 0.0015,-0.01015 0.0059,-0.02411 z M 85.42013,56.329761 c 3e-6,-2.71e-4 0.0065,-0.02063 0.01453,-0.04524 l 0.01452,-0.04475 -0.03762,-0.02727 -0.03762,-0.02727 0.04664,-9.23e-4 0.04664,-9.23e-4 0.01475,-0.04506 0.01475,-0.04506 0.01479,0.04506 0.01479,0.04506 0.04674,9.23e-4 0.04674,9.23e-4 -0.03773,0.02725 -0.03773,0.02725 0.01453,0.04477 c 0.008,0.02462 0.01453,0.04496 0.01453,0.04519 4e-6,2.33e-4 -0.01708,-0.01204 -0.03796,-0.02728 -0.02203,-0.01607 -0.03889,-0.02717 -0.04016,-0.02644 -0.0022,0.0013 -0.01603,0.01122 -0.05437,0.03915 -0.01143,0.0083 -0.02077,0.01491 -0.02077,0.01464 z m 1.364632,0 c 0,-2.71e-4 0.0065,-0.02063 0.01453,-0.04524 l 0.01452,-0.04475 -0.03762,-0.02727 -0.03762,-0.02727 0.04664,-9.23e-4 0.04664,-9.23e-4 0.01476,-0.04505 0.01476,-0.04505 0.01479,0.04505 0.01479,0.04505 0.04674,9.23e-4 0.04674,9.23e-4 -0.03773,0.02725 -0.03773,0.02725 0.01453,0.04477 c 0.008,0.02462 0.01453,0.04496 0.01453,0.04519 0,2.33e-4 -0.01708,-0.01204 -0.03796,-0.02728 -0.02203,-0.01607 -0.03889,-0.02717 -0.04016,-0.02644 -0.0022,0.0013 -0.01603,0.01122 -0.05437,0.03915 -0.01143,0.0083 -0.02077,0.01491 -0.02077,0.01464 z m -1.076526,-0.288137 c 2.4e-5,-2.33e-4 0.0066,-0.02037 0.01452,-0.04474 0.008,-0.02438 0.01382,-0.04515 0.01303,-0.04617 -7.91e-4,-10e-4 -0.01767,-0.01348 -0.03751,-0.0277 -0.01984,-0.01422 -0.03611,-0.02626 -0.03616,-0.02677 -4.7e-5,-5.08e-4 0.0209,-9.24e-4 0.04654,-9.24e-4 h 0.04663 l 0.01493,-0.04523 0.01493,-0.04523 0.01467,0.04523 0.01467,0.04523 h 0.04657 c 0.02561,0 0.04636,5.63e-4 0.04611,0.0013 -2.55e-4,6.88e-4 -0.01667,0.013 -0.03647,0.02737 -0.0198,0.01436 -0.03623,0.0271 -0.0365,0.02829 -2.71e-4,0.0012 0.0057,0.02127 0.01328,0.0446 0.0076,0.02333 0.0135,0.0427 0.01317,0.04303 -3.34e-4,3.33e-4 -0.01722,-0.01149 -0.03752,-0.02626 -0.0203,-0.01478 -0.03741,-0.02687 -0.03802,-0.02687 -6.07e-4,0 -0.01816,0.01245 -0.03901,0.02766 -0.02085,0.01521 -0.03789,0.02747 -0.03786,0.02724 z m 0.904787,-0.02663 c -0.0198,-0.0146 -0.03701,-0.02701 -0.03824,-0.02758 -0.0012,-5.65e-4 -0.01896,0.01116 -0.03941,0.02606 -0.02044,0.0149 -0.03746,0.02679 -0.03782,0.02643 -3.61e-4,-3.61e-4 0.0055,-0.01973 0.01309,-0.04304 0.0076,-0.02331 0.01375,-0.04327 0.01375,-0.04435 0,-0.0011 -0.0166,-0.01398 -0.03689,-0.02866 -0.02029,-0.01468 -0.03691,-0.02711 -0.03693,-0.02762 -2.1e-5,-5.08e-4 0.02092,-9.24e-4 0.04653,-9.24e-4 h 0.04657 l 0.01467,-0.04523 0.01467,-0.04523 0.01493,0.04523 0.01493,0.04523 h 0.04663 c 0.02564,0 0.04659,4.16e-4 0.04654,9.24e-4 -5e-5,5.07e-4 -0.0163,0.01256 -0.03611,0.02678 -0.01981,0.01422 -0.03669,0.02668 -0.03751,0.0277 -8.19e-4,0.001 0.005,0.02177 0.01292,0.04612 0.0079,0.02435 0.01425,0.04437 0.01405,0.04449 -1.95e-4,1.2e-4 -0.01656,-0.01173 -0.03636,-0.02633 z m -0.50966,-0.08099 c 0,-6.96e-4 0.0063,-0.02079 0.01401,-0.04465 0.0077,-0.02386 0.01331,-0.044 0.01246,-0.04474 -8.48e-4,-7.42e-4 -0.01809,-0.01332 -0.03833,-0.02795 l -0.03678,-0.0266 0.0478,-9.23e-4 0.0478,-9.23e-4 0.01381,-0.04293 c 0.0076,-0.02361 0.01431,-0.04293 0.01491,-0.04293 6.09e-4,0 0.0073,0.01932 0.01492,0.04293 l 0.01382,0.04293 0.0479,9.23e-4 0.0479,9.23e-4 -0.03674,0.02678 c -0.02021,0.01473 -0.0375,0.02729 -0.03842,0.02791 -9.25e-4,6.25e-4 0.0047,0.02086 0.01246,0.04496 0.0078,0.0241 0.01388,0.04407 0.01356,0.04438 -3.24e-4,3.09e-4 -0.01712,-0.01141 -0.03733,-0.02603 -0.0202,-0.01463 -0.03735,-0.02659 -0.0381,-0.02659 -7.48e-4,0 -0.01538,0.0102 -0.03251,0.02266 -0.04163,0.03029 -0.04315,0.03134 -0.04315,0.02988 z"
       id="path4546"
       inkscape:connector-curvature="0" />
  </g>
</svg>
