<?xml version="1.0" encoding="UTF-8" standalone="no"?>
<!-- Created with Inkscape (http://www.inkscape.org/) -->

<svg
   xmlns:dc="http://purl.org/dc/elements/1.1/"
   xmlns:cc="http://creativecommons.org/ns#"
   xmlns:rdf="http://www.w3.org/1999/02/22-rdf-syntax-ns#"
   xmlns:svg="http://www.w3.org/2000/svg"
   xmlns="http://www.w3.org/2000/svg"
   xmlns:sodipodi="http://sodipodi.sourceforge.net/DTD/sodipodi-0.dtd"
   xmlns:inkscape="http://www.inkscape.org/namespaces/inkscape"
   width="3.175mm"
   height="3.175mm"
   viewBox="0 0 3.175 3.175"
   version="1.1"
   id="svg8"
   inkscape:version="0.92.5 (2060ec1f9f, 2020-04-08)"
   sodipodi:docname="UK_flag.svg">
  <defs
     id="defs2" />
  <sodipodi:namedview
     id="base"
     pagecolor="#ffffff"
     bordercolor="#666666"
     borderopacity="1.0"
     inkscape:pageopacity="0.0"
     inkscape:pageshadow="2"
     inkscape:zoom="90.509668"
     inkscape:cx="14.146823"
     inkscape:cy="6.0821606"
     inkscape:document-units="mm"
     inkscape:current-layer="layer1"
     showgrid="false"
     fit-margin-top="0"
     fit-margin-left="0"
     fit-margin-right="0"
     fit-margin-bottom="0"
     units="px"
     inkscape:window-width="3378"
     inkscape:window-height="1417"
     inkscape:window-x="54"
     inkscape:window-y="1072"
     inkscape:window-maximized="1" />
  <metadata
     id="metadata5">
    <rdf:RDF>
      <cc:Work
         rdf:about="">
        <dc:format>image/svg+xml</dc:format>
        <dc:type
           rdf:resource="http://purl.org/dc/dcmitype/StillImage" />
        <dc:title></dc:title>
      </cc:Work>
    </rdf:RDF>
  </metadata>
  <g
     inkscape:label="Ebene 1"
     inkscape:groupmode="layer"
     id="layer1"
     transform="translate(-84.591072,-55.019642)">
    <circle
       style="fill:#b3b3b3;stroke-width:0.30238095"
       id="path4531"
       cx="86.178574"
       cy="56.607143"
       r="1.5200955" />
    <path
       style="fill:#fbfafb;stroke-width:0.01230625"
       d="M 6,0.5390625 A 5.4611373,5.4611373 0 0 0 0.5390625,6 5.4611373,5.4611373 0 0 0 6,11.460938 5.4611373,5.4611373 0 0 0 11.460938,6 5.4611373,5.4611373 0 0 0 6,0.5390625 Z"
       transform="matrix(0.26458333,0,0,0.26458333,84.591072,55.019642)"
       id="path1418"
       inkscape:connector-curvature="0" />
    <path
       style="fill:#c7102e;stroke-width:0.01230625"
       d="M 6.0019531,0.53710938 A 5.4611373,5.4611373 0 0 0 4.7402344,0.69140625 l -0.00195,1.79492185 -0.00391,2.359375 -4.06835938,0.00391 a 5.4611373,5.4611373 0 0 0 -0.125,1.1484375 5.4611373,5.4611373 0 0 0 0.14453126,1.2207031 l 4.04882812,0.00195 0.00391,2.359375 0.00195,1.7265633 a 5.4611373,5.4611373 0 0 0 1.2617187,0.152343 5.4611373,5.4611373 0 0 0 1.1035157,-0.117187 l 0.00195,-1.7617193 0.00195,-2.359375 4.2089842,-0.00195 A 5.4611373,5.4611373 0 0 0 11.462891,5.9980469 5.4611373,5.4611373 0 0 0 11.333984,4.8496094 L 7.109375,4.8456994 7.107425,2.4863244 7.103515,0.65038692 A 5.4611373,5.4611373 0 0 0 6.0019531,0.53710938 Z m 1.8886719,0.34375 V 1.9160156 c 0,0.9836788 0.00366,1.7907644 0.00781,1.7949219 0.00192,0.00192 1.3108328,-0.6558171 2.332032,-1.1640625 A 5.4611373,5.4611373 0 0 0 7.890625,0.88085938 Z m -3.9375,0.0585937 A 5.4611373,5.4611373 0 0 0 1.7265625,2.609375 c 0.9347761,0.4658061 2.2137674,1.1053869 2.2167969,1.1035156 0.00491,-0.00303 0.00977,-0.8124668 0.00977,-1.796875 z m 6.525391,1.94140632 c -0.9587406,0.4816133 -2.3281254,1.1678262 -2.3281254,1.171875 0,0.00819 0.2931082,0.012168 0.8574219,0.011719 h 0.859375 L 10.884766,3.5546875 A 5.4611373,5.4611373 0 0 0 10.478516,2.8808594 Z M 1.0898438,3.6269531 a 5.4611373,5.4611373 0 0 0 -0.18945318,0.4375 H 1.0761719 c 0.5643137,3.78e-4 0.859375,-0.00378 0.859375,-0.011719 0,-0.00146 -0.6950371,-0.3491439 -0.8457031,-0.425781 z m 9.6738282,4.375 c -0.561816,0 -0.8535158,0.00573 -0.8535158,0.013672 0,0.00164 0.7590918,0.3800672 0.9453128,0.4746094 A 5.4611373,5.4611373 0 0 0 11.076172,8.0019531 Z M 1.9785156,8.0039062 1.1171875,8.4355469 A 5.4611373,5.4611373 0 0 0 1.5214844,9.109375 c 0.851843,-0.4281776 2.1738281,-1.0899714 2.1738281,-1.09375 0,-0.00818 -0.2950651,-0.012168 -0.859375,-0.011719 z M 3.9433594,8.3554688 C 3.9402849,8.3536328 2.6727638,8.9874674 1.765625,9.4394531 a 5.4611373,5.4611373 0 0 0 2.1875,1.6171879 v -0.90625 c 0,-0.9844086 -0.00485,-1.7918873 -0.00977,-1.7949222 z m 3.9570312,0 c -0.00491,0.00303 -0.00977,0.8105136 -0.00977,1.7949222 v 0.966797 A 5.4611373,5.4611373 0 0 0 10.193359,9.4960938 C 9.2044303,9.0031728 7.9035237,8.3535359 7.9003906,8.3554688 Z"
       transform="matrix(0.26458333,0,0,0.26458333,84.591072,55.019642)"
       id="path1416"
       inkscape:connector-curvature="0" />
    <path
       style="fill:#002068;stroke-width:0.01230625"
       d="M 7.890625,0.88085938 V 1.9160156 c 0,0.9836788 0.00366,1.7907644 0.00781,1.7949219 0.00192,0.00192 1.3108328,-0.6558171 2.332032,-1.1640625 A 5.4611373,5.4611373 0 0 0 7.890625,0.88085938 Z m -3.9375,0.0585937 A 5.4611373,5.4611373 0 0 0 1.7265625,2.6074219 c 0.9347761,0.465806 2.2137674,1.1053869 2.2167969,1.1035156 0.00491,-0.00304 0.00977,-0.8105137 0.00977,-1.7949219 z M 3.9433594,8.3554688 C 3.9402849,8.3536328 2.6727638,8.9874674 1.765625,9.4394531 a 5.4611373,5.4611373 0 0 0 2.1875,1.6171879 v -0.90625 c 0,-0.9844086 -0.00485,-1.7918873 -0.00977,-1.7949222 z m 3.9570312,0 c -0.00491,0.00303 -0.00977,0.8105136 -0.00977,1.7949222 v 0.966797 A 5.4611373,5.4611373 0 0 0 10.193359,9.4960938 C 9.2044303,9.0031728 7.9035237,8.3535359 7.9003906,8.3554688 Z"
       transform="matrix(0.26458333,0,0,0.26458333,84.591072,55.019642)"
       id="path1414"
       inkscape:connector-curvature="0" />
  </g>
</svg>
