<?xml version="1.0" encoding="UTF-8" standalone="no"?>
<!-- Created with Inkscape (http://www.inkscape.org/) -->

<svg
   xmlns:dc="http://purl.org/dc/elements/1.1/"
   xmlns:cc="http://creativecommons.org/ns#"
   xmlns:rdf="http://www.w3.org/1999/02/22-rdf-syntax-ns#"
   xmlns:svg="http://www.w3.org/2000/svg"
   xmlns="http://www.w3.org/2000/svg"
   xmlns:sodipodi="http://sodipodi.sourceforge.net/DTD/sodipodi-0.dtd"
   xmlns:inkscape="http://www.inkscape.org/namespaces/inkscape"
   width="3.175mm"
   height="3.175mm"
   viewBox="0 0 3.175 3.175"
   version="1.1"
   id="svg8"
   inkscape:version="0.92.5 (2060ec1f9f, 2020-04-08)"
   sodipodi:docname="USA_flag.svg">
  <defs
     id="defs2" />
  <sodipodi:namedview
     id="base"
     pagecolor="#ffffff"
     bordercolor="#666666"
     borderopacity="1.0"
     inkscape:pageopacity="0.0"
     inkscape:pageshadow="2"
     inkscape:zoom="45.254834"
     inkscape:cx="8.0990175"
     inkscape:cy="3.618248"
     inkscape:document-units="mm"
     inkscape:current-layer="layer1"
     showgrid="false"
     fit-margin-top="0"
     fit-margin-left="0"
     fit-margin-right="0"
     fit-margin-bottom="0"
     units="px"
     inkscape:window-width="3378"
     inkscape:window-height="1417"
     inkscape:window-x="54"
     inkscape:window-y="1072"
     inkscape:window-maximized="1" />
  <metadata
     id="metadata5">
    <rdf:RDF>
      <cc:Work
         rdf:about="">
        <dc:format>image/svg+xml</dc:format>
        <dc:type
           rdf:resource="http://purl.org/dc/dcmitype/StillImage" />
        <dc:title></dc:title>
      </cc:Work>
    </rdf:RDF>
  </metadata>
  <g
     inkscape:label="Ebene 1"
     inkscape:groupmode="layer"
     id="layer1"
     transform="translate(-84.591072,-55.019642)">
    <circle
       style="fill:#b3b3b3;stroke-width:0.30238095"
       id="path4531"
       cx="86.178574"
       cy="56.607143"
       r="1.5200955" />
    <path
       style="fill:#faf9f9;stroke-width:0.01114961"
       d="M 6,0.5390625 A 5.4611373,5.4611373 0 0 0 0.5390625,6 5.4611373,5.4611373 0 0 0 6,11.460938 5.4611373,5.4611373 0 0 0 11.460938,6 5.4611373,5.4611373 0 0 0 6,0.5390625 Z"
       transform="matrix(0.26458333,0,0,0.26458333,84.591072,55.019642)"
       id="path1548"
       inkscape:connector-curvature="0" />
    <path
       style="fill:#b12234;stroke-width:0.01114961"
       d="m 6.0019531,0.53710938 a 5.4611373,5.4611373 0 0 0 -1.9433593,0.359375 c 0.044137,0.001174 0.087891,0.003405 0.087891,0.007813 0,0.005367 -0.035001,0.0350362 -0.078125,0.0664062 -0.043124,0.0314457 -0.082528,0.0651479 -0.085938,0.0742188 -0.00378,0.00892 0.00719,0.056184 0.023438,0.1054687 0.016252,0.049285 0.027636,0.094759 0.025391,0.1015625 -0.00219,0.00665 -0.042108,-0.016387 -0.089844,-0.050781 -0.047698,-0.03428 -0.091168,-0.0625 -0.095703,-0.0625 -0.00457,0 -0.040544,0.022813 -0.080078,0.050781 -0.097285,0.069014 -0.109375,0.077491 -0.109375,0.058594 0,-0.00835 0.011848,-0.052566 0.027344,-0.097656 0.015118,-0.04509 0.027442,-0.089783 0.027344,-0.099609 -2.7e-6,-2.319e-4 -0.00191,-0.00169 -0.00195,-0.00195 A 5.4611373,5.4611373 0 0 0 3.15625,1.3417969 c 0.00195,0.00478 0.0042,0.0045 0.00586,0.00977 0.00869,0.027591 0.021801,0.071578 0.03125,0.097656 l 0.017578,0.046875 h 0.1035156 c 0.057373,0 0.1076885,0.0041 0.1113281,0.00977 0.00363,0.00582 -0.031939,0.039447 -0.078125,0.074219 -0.046148,0.034772 -0.082031,0.068991 -0.082031,0.076172 0,0.00737 0.011848,0.050613 0.027344,0.095703 0.029102,0.085795 0.033893,0.1113281 0.019531,0.1113281 -0.00472,0 -0.043871,-0.024073 -0.085937,-0.054687 -0.042028,-0.030803 -0.083545,-0.056641 -0.09375,-0.056641 -0.010091,0 -0.053108,0.026027 -0.095703,0.056641 h -0.00195 c -0.042595,0.030803 -0.081024,0.054687 -0.085937,0.054687 -0.014362,0 -0.00957,-0.025457 0.019531,-0.1113281 0.015496,-0.045052 0.027344,-0.088522 0.027344,-0.095703 0,-0.00737 -0.037799,-0.0414 -0.083984,-0.076172 -0.028102,-0.021203 -0.033274,-0.030714 -0.046875,-0.044922 A 5.4611373,5.4611373 0 0 0 2.1660156,2.1152344 c 0.019145,-0.00188 0.024261,-0.00586 0.054687,-0.00586 0.070337,0 0.1076753,-0.00422 0.1152344,-0.013672 0.00616,-0.00763 0.024386,-0.056852 0.041016,-0.1074219 0.016554,-0.050608 0.035724,-0.091797 0.041016,-0.091797 0.00522,0 0.022432,0.041189 0.039062,0.091797 0.016743,0.05057 0.034968,0.099863 0.041016,0.1074219 0.00741,0.00945 0.044897,0.013672 0.1152343,0.013672 0.057487,0 0.1054688,0.00447 0.1054688,0.00977 0,0.00522 -0.037987,0.035477 -0.083984,0.068359 -0.045846,0.032882 -0.083984,0.068298 -0.083984,0.078125 0,0.00986 0.011848,0.05452 0.027344,0.099609 0.015496,0.04509 0.029297,0.086884 0.029297,0.091797 0,0.019956 -0.0296,0.00645 -0.1015625,-0.046875 -0.041348,-0.030803 -0.081087,-0.056641 -0.087891,-0.056641 -0.00699,0 -0.045749,0.026026 -0.087891,0.056641 h -0.00195 c -0.073436,0.053367 -0.099609,0.066529 -0.099609,0.046875 0,-0.00506 0.011848,-0.046707 0.027344,-0.091797 0.015496,-0.04509 0.027344,-0.089405 0.027344,-0.099609 0,-0.010469 -0.036967,-0.044865 -0.083984,-0.078125 -0.032103,-0.022919 -0.042645,-0.035952 -0.056641,-0.048828 A 5.4611373,5.4611373 0 0 0 1.7402344,2.5898438 c 0.00448,0.011482 0.00709,0.00961 0.011719,0.023437 l 0.03125,0.097656 h 0.1113281 c 0.065726,0 0.109375,0.00529 0.109375,0.011719 0,0.00609 -0.036034,0.03825 -0.082031,0.072266 -0.045846,0.034016 -0.083984,0.067038 -0.083984,0.074219 0,0.00707 0.012667,0.054672 0.029297,0.1054688 0.016252,0.050759 0.027217,0.09583 0.023437,0.099609 -0.00401,0.00397 -0.040721,-0.017017 -0.082031,-0.046875 -0.04131,-0.029934 -0.081529,-0.057209 -0.089844,-0.0625 -0.01028,-0.00627 -0.04245,0.00802 -0.095703,0.046875 -0.1243087,0.090671 -0.1255837,0.088911 -0.080078,-0.044922 0.015496,-0.04509 0.027344,-0.087766 0.027344,-0.095703 0,-0.00246 -0.019227,-0.016837 -0.025391,-0.023438 A 5.4611373,5.4611373 0 0 0 1.2402344,3.328125 c 0.019119,0.00171 0.050781,0.0031 0.050781,0.00586 0,0.00518 -0.037987,0.035855 -0.083984,0.068359 -0.0086,0.00611 -0.00779,0.00768 -0.015625,0.013672 a 5.4611373,5.4611373 0 0 0 -0.052734,0.109375 c 0.00505,0.018662 0.00584,0.027991 0.013672,0.052734 0.015496,0.047773 0.027264,0.089215 0.027344,0.09375 2.784e-4,0.016946 -0.031187,1.475e-4 -0.091797,-0.042969 a 5.4611373,5.4611373 0 0 0 -0.34179685,0.90625 c 0.0213111,-0.00261 0.0299606,-0.00415 0.0625,-0.00586 l 0.10742187,-0.00586 0.03125,-0.095703 c 0.016441,-0.052157 0.0357876,-0.09375 0.0429688,-0.09375 0.00737,0 0.0263388,0.04163 0.0429687,0.09375 l 0.03125,0.095703 0.1074219,0.00586 C 1.2754349,4.534586 1.309346,4.544294 1.285157,4.560546 1.203972,4.6156902 1.125,4.6784291 1.125,4.6875 c 0,0.00624 0.01147,0.0535 0.027344,0.1054688 0.015874,0.051969 0.027077,0.097923 0.023437,0.1015624 -0.00367,0.00367 -0.044376,-0.020986 -0.089844,-0.052734 -0.045468,-0.031635 -0.0900972,-0.056641 -0.0976563,-0.056641 -0.007635,0 -0.0478154,0.024073 -0.0898438,0.054688 -0.0717732,0.052611 -0.0976563,0.065836 -0.0976563,0.048828 0,-0.00401 0.0126669,-0.05209 0.0292969,-0.1074219 L 0.8613275,4.6796878 0.8281244,4.6582038 C 0.7659452,4.6130738 0.7550979,4.5957278 0.7363275,4.5761728 A 5.4611373,5.4611373 0 0 0 0.541015,5.9980478 5.4611373,5.4611373 0 0 0 0.5644525,6.4687509 l 3.2714844,-0.00391 c 2.5060091,-0.003 5.1395395,-0.00463 7.6035151,-0.00586 a 5.4611373,5.4611373 0 0 0 0.02344,-0.4609375 5.4611373,5.4611373 0 0 0 -0.01563,-0.4023438 c -2.7825481,-10e-4 -5.4424859,-0.00169 -5.4492187,-0.00586 -0.010825,-0.00699 -0.01209,-0.1007052 -0.00977,-0.4316407 l 0.00195,-0.4238281 5.3164067,-0.00195 a 5.4611373,5.4611373 0 0 0 -0.28711,-0.875 L 5.9902344,3.8535156 V 3.4238281 2.9960938 l 4.5683596,-0.00195 A 5.4611373,5.4611373 0 0 0 9.8476562,2.1269531 C 8.256603,2.1252837 6.0028033,2.1240382 5.9980469,2.1210938 5.9872261,2.1141054 5.9859568,2.0203886 5.9882812,1.6894531 L 5.9902344,1.2675781 8.71875,1.265625 A 5.4611373,5.4611373 0 0 0 6.0019531,0.53710938 Z M 5.2714844,0.68164062 c 0.00522,0 0.024386,0.041189 0.041016,0.0917969 0.016743,0.0505701 0.034968,0.0979097 0.041016,0.10546875 0.00741,0.009449 0.044897,0.015625 0.1152344,0.015625 0.057487,0 0.1035156,0.004474 0.1035156,0.009766 0,0.005367 -0.035001,0.0350362 -0.078125,0.0664062 -0.043124,0.0314457 -0.080575,0.0651479 -0.083984,0.0742188 -0.00378,0.00892 0.00719,0.056184 0.023438,0.1054687 0.016252,0.049285 0.027639,0.094759 0.025391,0.1015625 -0.00219,0.00665 -0.042108,-0.016387 -0.089844,-0.050781 -0.047698,-0.03428 -0.091168,-0.0625 -0.095703,-0.0625 -0.00457,0 -0.040544,0.022813 -0.080078,0.050781 -0.097285,0.069014 -0.1113282,0.077491 -0.1113282,0.058594 0,-0.00835 0.013801,-0.052566 0.029297,-0.097656 0.015118,-0.04509 0.027442,-0.089783 0.027344,-0.099609 -1.134e-4,-0.00964 -0.038101,-0.045243 -0.083984,-0.078125 -0.046035,-0.0326551 -0.083984,-0.0626901 -0.083984,-0.0683594 0,-0.005669 0.047944,-0.009766 0.1054688,-0.009766 0.070337,0 0.1076753,-0.006176 0.1152343,-0.015625 0.00616,-0.007635 0.024386,-0.0548987 0.041016,-0.10546875 0.016554,-0.0506079 0.033771,-0.0917969 0.039063,-0.0917969 z M 4.5585938,1.3007812 c 0.00831,0 0.020604,0.023191 0.029297,0.050781 0.00869,0.027591 0.023754,0.071578 0.033203,0.097656 l 0.017578,0.046875 h 0.1035156 c 0.057373,0 0.1076884,0.0041 0.1113281,0.00977 0.00363,0.00582 -0.031939,0.039447 -0.078125,0.074219 -0.046186,0.034772 -0.083984,0.068991 -0.083984,0.076172 0,0.00737 0.013801,0.050613 0.029297,0.095703 0.029102,0.085795 0.03194,0.1113281 0.017578,0.1113281 -0.00472,0 -0.041918,-0.024073 -0.083984,-0.054687 -0.042066,-0.030803 -0.085498,-0.056641 -0.095703,-0.056641 -0.010129,0 -0.053108,0.026027 -0.095703,0.056641 -0.042595,0.030803 -0.081024,0.054687 -0.085937,0.054687 -0.014362,0 -0.00957,-0.025457 0.019531,-0.1113281 0.015496,-0.045052 0.027344,-0.088522 0.027344,-0.095703 0,-0.00737 -0.037799,-0.0414 -0.083984,-0.076172 -0.046035,-0.034734 -0.081765,-0.068549 -0.078125,-0.074219 0.00363,-0.00567 0.053955,-0.00977 0.1113281,-0.00977 h 0.1054687 l 0.015625,-0.046875 c 0.00945,-0.026041 0.02451,-0.070066 0.033203,-0.097656 0.00869,-0.027515 0.022935,-0.050781 0.03125,-0.050781 z m -1.46875,0.078125 A 5.4611373,5.4611373 0 0 0 2.9160156,1.4980469 c 0.013531,-6.228e-4 0.01396,-0.00195 0.029297,-0.00195 h 0.1054687 l 0.017578,-0.046875 c 0.00677,-0.018671 0.013559,-0.045869 0.021484,-0.070313 z M 3.84375,1.8964844 c 0.00522,0 0.024386,0.041189 0.041016,0.091797 0.016743,0.05057 0.034968,0.099863 0.041016,0.1074219 0.00741,0.00945 0.044897,0.013672 0.1152344,0.013672 0.057487,0 0.1035156,0.00447 0.1035156,0.00977 0,0.00522 -0.036034,0.035477 -0.082031,0.068359 -0.045846,0.032882 -0.083984,0.068298 -0.083984,0.078125 0,0.00986 0.011848,0.05452 0.027344,0.099609 0.015496,0.04509 0.027344,0.086884 0.027344,0.091797 0,0.019956 -0.027647,0.00645 -0.099609,-0.046875 -0.041386,-0.030803 -0.081088,-0.056641 -0.087891,-0.056641 -0.00699,0 -0.047702,0.026026 -0.089844,0.056641 -0.073436,0.053367 -0.1015625,0.066529 -0.1015625,0.046875 0,-0.00506 0.013801,-0.046707 0.029297,-0.091797 0.015496,-0.04509 0.027344,-0.089405 0.027344,-0.099609 0,-0.010469 -0.036967,-0.044865 -0.083984,-0.078125 -0.045846,-0.032731 -0.083984,-0.063068 -0.083984,-0.068359 0,-0.00529 0.047982,-0.00977 0.1054687,-0.00977 0.070337,0 0.1076753,-0.00422 0.1152344,-0.013672 0.00616,-0.00763 0.024386,-0.056852 0.041016,-0.1074219 0.016554,-0.050608 0.033771,-0.091797 0.039063,-0.091797 z m 1.4277344,0 c 0.00522,0 0.022433,0.041189 0.039063,0.091797 0.016743,0.05057 0.034968,0.099863 0.041016,0.1074219 0.00741,0.00945 0.04685,0.013672 0.1171875,0.013672 0.057487,0 0.1035156,0.00447 0.1035156,0.00977 0,0.00522 -0.037987,0.035477 -0.083984,0.068359 -0.045846,0.032882 -0.082031,0.068298 -0.082031,0.078125 0,0.00986 0.011848,0.05452 0.027344,0.099609 0.015496,0.04509 0.027344,0.086884 0.027344,0.091797 0,0.019956 -0.027647,0.00645 -0.099609,-0.046875 -0.041386,-0.030803 -0.081087,-0.056641 -0.087891,-0.056641 -0.00699,0 -0.047702,0.026026 -0.089844,0.056641 -0.073436,0.053367 -0.1015626,0.066529 -0.1015626,0.046875 0,-0.00506 0.011848,-0.046707 0.027344,-0.091797 0.015496,-0.04509 0.029297,-0.089405 0.029297,-0.099609 0,-0.010469 -0.036967,-0.044865 -0.083984,-0.078125 -0.045846,-0.032731 -0.083984,-0.063068 -0.083984,-0.068359 0,-0.00529 0.046029,-0.00977 0.1035157,-0.00977 0.070337,0 0.1096284,-0.00422 0.1171874,-0.013672 0.00616,-0.00763 0.024386,-0.056852 0.041016,-0.1074219 0.016554,-0.050608 0.033771,-0.091797 0.039063,-0.091797 z M 3.1308594,2.515625 c 0.00881,0 0.027599,0.040056 0.046875,0.097656 l 0.033203,0.097656 h 0.1113281 c 0.065764,0 0.109375,0.00529 0.109375,0.011719 0,0.00609 -0.037988,0.03825 -0.083984,0.072266 -0.045846,0.034016 -0.082031,0.067038 -0.082031,0.074219 0,0.00707 0.012667,0.054672 0.029297,0.1054688 0.016252,0.050759 0.027217,0.09583 0.023437,0.099609 -0.00401,0.00397 -0.042674,-0.017017 -0.083984,-0.046875 -0.04131,-0.029934 -0.081529,-0.057209 -0.089844,-0.0625 -0.01028,-0.00627 -0.040496,0.00802 -0.09375,0.046875 -0.1242708,0.090671 -0.1275367,0.088911 -0.082031,-0.044922 0.015496,-0.04509 0.029297,-0.087766 0.029297,-0.095703 0,-0.00809 -0.037987,-0.042156 -0.083984,-0.076172 -0.045846,-0.034016 -0.083984,-0.066218 -0.083984,-0.072266 0,-0.00605 0.048059,-0.011719 0.1113281,-0.011719 h 0.109375 l 0.033203,-0.097656 c 0.019049,-0.0576 0.038182,-0.097656 0.046875,-0.097656 z m 1.4277344,0 c 0.00881,0 0.027599,0.040056 0.046875,0.097656 l 0.033203,0.097656 h 0.109375 c 0.065726,0 0.1113281,0.00529 0.1113281,0.011719 0,0.00609 -0.037987,0.03825 -0.083984,0.072266 -0.045846,0.034016 -0.083984,0.067038 -0.083984,0.074219 0,0.00707 0.01462,0.054672 0.03125,0.1054688 0.016252,0.050759 0.025264,0.09583 0.021484,0.099609 -0.00401,0.00397 -0.040721,-0.017017 -0.082031,-0.046875 -0.04131,-0.029934 -0.081529,-0.057209 -0.089844,-0.0625 -0.01028,-0.00627 -0.040496,0.00802 -0.09375,0.046875 -0.1242708,0.090671 -0.1275367,0.088911 -0.082031,-0.044922 0.015496,-0.04509 0.027344,-0.087766 0.027344,-0.095703 0,-0.00809 -0.037987,-0.042156 -0.083984,-0.076172 -0.045846,-0.034016 -0.082031,-0.066218 -0.082031,-0.072266 0,-0.00605 0.046106,-0.011719 0.109375,-0.011719 H 4.478517 l 0.03125,-0.097656 c 0.019049,-0.0576 0.040135,-0.097656 0.048828,-0.097656 z m -2.140625,0.5976562 c 0.00499,0 0.022432,0.041227 0.039062,0.091797 0.016668,0.05057 0.037048,0.09791 0.046875,0.1054688 0.011074,0.00869 0.05543,0.013672 0.1171876,0.013672 0.054047,0 0.097656,0.00447 0.097656,0.00977 0,0.00518 -0.037987,0.035855 -0.083984,0.068359 -0.045846,0.032542 -0.083984,0.066282 -0.083984,0.074219 0,0.00801 0.012226,0.053789 0.027344,0.1015625 0.015496,0.047773 0.029218,0.089215 0.029297,0.09375 3.023e-4,0.018406 -0.026475,0.00634 -0.099609,-0.046875 -0.042142,-0.030803 -0.082285,-0.054687 -0.089844,-0.054687 -0.00737,0 -0.050371,0.024728 -0.091797,0.054687 -0.070416,0.050945 -0.097965,0.065097 -0.097656,0.046875 0,-0.00461 0.012226,-0.045977 0.027344,-0.09375 0.015118,-0.047773 0.027344,-0.093625 0.027344,-0.1015625 0,-0.00805 -0.037988,-0.041337 -0.083984,-0.074219 -0.045846,-0.033033 -0.082031,-0.065399 -0.082031,-0.070313 0,-0.00491 0.043647,-0.00781 0.097656,-0.00781 0.061757,0 0.1042737,-0.00498 0.1152343,-0.013672 0.00968,-0.00763 0.032198,-0.054899 0.048828,-0.1054688 0.016706,-0.050608 0.033771,-0.091797 0.039063,-0.091797 z m 1.4257812,0 c 0.00499,0 0.024386,0.041227 0.041016,0.091797 0.016668,0.05057 0.037048,0.09791 0.046875,0.1054688 0.011074,0.00869 0.053477,0.013672 0.1152344,0.013672 0.054047,0 0.099609,0.00447 0.099609,0.00977 0,0.00518 -0.037988,0.035855 -0.083984,0.068359 -0.045846,0.032542 -0.083984,0.066282 -0.083984,0.074219 0,0.00801 0.012226,0.053789 0.027344,0.1015625 0.015496,0.047773 0.027264,0.089215 0.027344,0.09375 3.024e-4,0.018406 -0.024522,0.00634 -0.097656,-0.046875 -0.042142,-0.030803 -0.084238,-0.054687 -0.091797,-0.054687 -0.00748,0 -0.047702,0.024073 -0.089844,0.054687 -0.073058,0.053065 -0.099923,0.065395 -0.099609,0.046875 0,-0.00461 0.014179,-0.045977 0.029297,-0.09375 0.015118,-0.047773 0.027344,-0.093625 0.027344,-0.1015625 0,-0.00805 -0.037987,-0.041337 -0.083984,-0.074219 -0.045808,-0.033033 -0.083984,-0.065399 -0.083984,-0.070313 0,-0.00491 0.0456,-0.00781 0.099609,-0.00781 0.061757,0 0.1042738,-0.00498 0.1152344,-0.013672 0.00968,-0.00763 0.030245,-0.054899 0.046875,-0.1054688 0.016706,-0.050608 0.033771,-0.091797 0.039063,-0.091797 z m 1.4277344,0 c 0.00499,0 0.022433,0.041227 0.039063,0.091797 0.016668,0.05057 0.039001,0.09791 0.048828,0.1054688 0.011074,0.00869 0.053477,0.013672 0.1152344,0.013672 0.054047,0 0.097656,0.00447 0.097656,0.00977 0,0.00518 -0.037987,0.035855 -0.083984,0.068359 -0.045846,0.032542 -0.082031,0.066282 -0.082031,0.074219 0,0.00801 0.012226,0.053789 0.027344,0.1015625 0.015496,0.047773 0.027264,0.089215 0.027344,0.09375 3.024e-4,0.018406 -0.026476,0.00634 -0.099609,-0.046875 -0.042142,-0.030803 -0.082285,-0.054687 -0.089844,-0.054687 -0.00748,0 -0.047702,0.024073 -0.089844,0.054687 -0.073058,0.053065 -0.099923,0.065395 -0.099609,0.046875 0,-0.00461 0.012226,-0.045977 0.027344,-0.09375 0.015118,-0.047773 0.029297,-0.093625 0.029297,-0.1015625 0,-0.00805 -0.037988,-0.041337 -0.083984,-0.074219 -0.045808,-0.033033 -0.083984,-0.065399 -0.083984,-0.070313 0,-0.00491 0.043647,-0.00781 0.097656,-0.00781 0.061757,0 0.1062268,-0.00498 0.1171875,-0.013672 0.00968,-0.00763 0.030245,-0.054899 0.046875,-0.1054688 0.016705,-0.050608 0.033771,-0.091797 0.039063,-0.091797 z M 1.703125,3.7148438 c 0.00522,0 0.024386,0.041227 0.041016,0.091797 0.016743,0.05057 0.034968,0.09791 0.041016,0.1054688 0.00741,0.00945 0.044897,0.013672 0.1152344,0.013672 0.057487,0 0.1035156,0.00447 0.1035156,0.00977 0,0.0054 -0.036034,0.039447 -0.082031,0.074219 -0.045846,0.034583 -0.083984,0.067038 -0.083984,0.074219 0,0.00718 0.012667,0.054672 0.029297,0.1054687 0.01663,0.050797 0.027217,0.09583 0.023437,0.099609 -0.00389,0.00389 -0.045939,-0.020294 -0.09375,-0.054687 -0.047811,-0.034507 -0.094381,-0.061462 -0.1015625,-0.058594 -0.00737,0.00283 -0.047249,0.031508 -0.089844,0.0625 -0.042633,0.03103 -0.080265,0.056641 -0.083984,0.056641 -0.012473,0 -0.00844,-0.028708 0.019531,-0.1113281 0.015496,-0.045052 0.029297,-0.089719 0.029297,-0.097656 0,-0.00797 -0.037988,-0.0414 -0.083984,-0.076172 -0.045846,-0.03462 -0.083984,-0.068927 -0.083984,-0.074219 0,-0.00529 0.047982,-0.00977 0.1054687,-0.00977 0.070337,0 0.1076753,-0.00422 0.1152344,-0.013672 0.00616,-0.00763 0.024386,-0.054861 0.041016,-0.1054688 0.016554,-0.050608 0.033771,-0.091797 0.039063,-0.091797 z m 1.4277344,0 c 0.00522,0 0.022433,0.041227 0.039063,0.091797 0.016743,0.05057 0.034968,0.09791 0.041016,0.1054688 0.00741,0.00945 0.046851,0.013672 0.1171875,0.013672 0.057487,0 0.1035156,0.00447 0.1035156,0.00977 0,0.0054 -0.037988,0.039447 -0.083984,0.074219 -0.045846,0.034583 -0.083984,0.067038 -0.083984,0.074219 0,0.00718 0.01462,0.054672 0.03125,0.1054687 0.01663,0.050797 0.027217,0.09583 0.023437,0.099609 -0.00389,0.00389 -0.045939,-0.020294 -0.09375,-0.054687 -0.047811,-0.034507 -0.094381,-0.061462 -0.1015625,-0.058594 -0.00737,0.00283 -0.047248,0.031508 -0.089844,0.0625 H 3.03125 c -0.042633,0.03103 -0.080265,0.056641 -0.083984,0.056641 -0.012472,0 -0.00648,-0.028708 0.021484,-0.1113281 0.015496,-0.045052 0.027344,-0.089719 0.027344,-0.097656 0,-0.00797 -0.036034,-0.0414 -0.082031,-0.076172 -0.045846,-0.03462 -0.083984,-0.068927 -0.083984,-0.074219 0,-0.00529 0.045991,-0.00977 0.1035157,-0.00977 0.070337,0 0.1076753,-0.00422 0.1152343,-0.013672 0.00616,-0.00763 0.026339,-0.054861 0.042969,-0.1054688 0.016554,-0.050608 0.033771,-0.091797 0.039063,-0.091797 z m 1.4277344,0 c 0.00522,0 0.022433,0.041227 0.039062,0.091797 0.016743,0.05057 0.034968,0.09791 0.041016,0.1054688 0.00741,0.00945 0.044897,0.013672 0.1152343,0.013672 0.057487,0 0.1054688,0.00447 0.1054688,0.00977 0,0.0054 -0.037987,0.039447 -0.083984,0.074219 -0.045846,0.034583 -0.083984,0.067038 -0.083984,0.074219 0,0.00718 0.01462,0.054672 0.03125,0.1054687 0.01663,0.050797 0.025264,0.09583 0.021484,0.099609 -0.00389,0.00389 -0.045939,-0.020294 -0.09375,-0.054687 -0.047811,-0.034507 -0.092428,-0.061462 -0.099609,-0.058594 -0.00737,0.00283 -0.049202,0.031508 -0.091797,0.0625 -0.042633,0.03103 -0.080265,0.056641 -0.083984,0.056641 -0.012472,0 -0.00648,-0.028708 0.021484,-0.1113281 0.015496,-0.045052 0.027344,-0.089719 0.027344,-0.097656 0,-0.00797 -0.037987,-0.0414 -0.083984,-0.076172 -0.045808,-0.03462 -0.083984,-0.068927 -0.083984,-0.074219 0,-0.00529 0.047982,-0.00977 0.1054687,-0.00977 0.070337,0 0.1076753,-0.00422 0.1152344,-0.013672 0.00616,-0.00763 0.024386,-0.054861 0.041016,-0.1054688 0.016554,-0.050608 0.035724,-0.091797 0.041016,-0.091797 z m -2.140625,0.6191406 c 0.00737,0 0.026339,0.04163 0.042969,0.09375 l 0.029297,0.095703 0.1074218,0.00586 c 0.1035591,0.00529 0.1394234,0.014998 0.1152344,0.03125 -0.081184,0.055143 -0.1621094,0.1178822 -0.1621094,0.1269531 0,0.00624 0.013423,0.0535 0.029297,0.1054688 0.015874,0.051969 0.025124,0.097923 0.021484,0.1015624 -0.00367,0.00367 -0.042423,-0.020986 -0.087891,-0.052734 -0.045468,-0.031635 -0.090097,-0.056641 -0.097656,-0.056641 -0.00763,0 -0.047815,0.024073 -0.089844,0.054688 -0.071773,0.052611 -0.099609,0.065836 -0.099609,0.048828 0,-0.00401 0.01462,-0.05209 0.03125,-0.1074219 l 0.029297,-0.1015625 -0.03125,-0.021484 C 2.166398,4.5932708 2.1146686,4.5478188 2.1210938,4.5410156 c 0.00404,-0.00378 0.056198,-0.00862 0.1152343,-0.011719 L 2.34375,4.5234366 2.373047,4.4277336 c 0.016441,-0.052157 0.037741,-0.09375 0.044922,-0.093749 z m 1.4257812,0 c 0.00737,0 0.028292,0.04163 0.044922,0.09375 l 0.029297,0.095703 0.1074218,0.00586 c 0.1035591,0.00529 0.1374703,0.014998 0.1132813,0.03125 -0.081184,0.055143 -0.1601563,0.1178822 -0.1601563,0.1269531 0,0.00624 0.013423,0.0535 0.029297,0.1054688 0.015874,0.051969 0.025124,0.097923 0.021484,0.1015624 -0.00367,0.00367 -0.044376,-0.020986 -0.089844,-0.052734 -0.045468,-0.031635 -0.088144,-0.056641 -0.095703,-0.056641 -0.00763,0 -0.047815,0.024073 -0.089844,0.054688 h -0.00195 c -0.071773,0.052611 -0.097656,0.065836 -0.097656,0.048828 0,-0.00401 0.01462,-0.05209 0.03125,-0.1074219 l 0.029297,-0.1015625 -0.03125,-0.021484 C 3.5941701,4.5932708 3.5424029,4.5478188 3.5488281,4.5410156 c 0.00404,-0.00378 0.056198,-0.00862 0.1152344,-0.011719 l 0.1074219,-0.00586 0.029297,-0.095703 c 0.016441,-0.052157 0.035788,-0.09375 0.042969,-0.093749 z m 1.4277344,0 c 0.00737,0 0.026339,0.04163 0.042969,0.09375 l 0.03125,0.095703 0.1074219,0.00586 c 0.1035591,0.00529 0.1374702,0.014998 0.1132812,0.03125 C 5.485222,4.6156902 5.40625,4.6784291 5.40625,4.6875 c 0,0.00624 0.01147,0.0535 0.027344,0.1054688 0.015874,0.051969 0.027077,0.097923 0.023437,0.1015624 -0.00367,0.00367 -0.044376,-0.020986 -0.089844,-0.052734 -0.045468,-0.031635 -0.088144,-0.056641 -0.095703,-0.056641 -0.00763,0 -0.049769,0.024073 -0.091797,0.054688 -0.071773,0.052611 -0.097656,0.065836 -0.097656,0.048828 0,-0.00401 0.012667,-0.05209 0.029297,-0.1074219 L 5.142578,4.6796878 5.111328,4.6582038 C 5.0219045,4.5932708 4.9701373,4.5478188 4.9765625,4.5410156 c 0.00404,-0.00378 0.054245,-0.00862 0.1132813,-0.011719 l 0.1074218,-0.00586 0.03125,-0.095703 c 0.016441,-0.052157 0.035788,-0.09375 0.042969,-0.093749 z M 1.703125,4.9296875 c 0.00522,0 0.024386,0.041227 0.041016,0.091797 0.016743,0.05057 0.034968,0.09791 0.041016,0.1054687 0.00741,0.00945 0.044897,0.015625 0.1152344,0.015625 0.057487,0 0.1035156,0.0041 0.1035156,0.00977 0,0.00563 -0.034887,0.035036 -0.078125,0.066406 -0.043238,0.031446 -0.080651,0.065526 -0.083984,0.074219 -0.0034,0.00869 0.00719,0.056184 0.023437,0.1054687 0.01663,0.049285 0.027484,0.095137 0.025391,0.1015625 -0.00212,0.00639 -0.042965,-0.016765 -0.091797,-0.050781 -0.048794,-0.033827 -0.091546,-0.0625 -0.095703,-0.0625 -0.00401,0 -0.045611,0.028862 -0.091797,0.0625 -0.046186,0.033713 -0.086204,0.060547 -0.089844,0.060547 -0.012095,0 -0.00762,-0.027625 0.021484,-0.1152344 C 1.558843,5.346763 1.569816,5.302044 1.566406,5.2929736 1.563006,5.2840536 1.523593,5.2501246 1.480469,5.2187546 1.437193,5.1872706 1.402344,5.1576396 1.402344,5.1523486 c 0,-0.00529 0.047982,-0.00977 0.1054687,-0.00977 0.070337,0 0.1076753,-0.00618 0.1152344,-0.015625 0.00616,-0.00763 0.024386,-0.054861 0.041016,-0.1054687 0.016554,-0.050608 0.033771,-0.091797 0.039063,-0.091797 z m 1.4277344,0 c 0.00522,0 0.022433,0.041227 0.039063,0.091797 0.016743,0.05057 0.034968,0.09791 0.041016,0.1054687 0.00741,0.00945 0.046851,0.015625 0.1171875,0.015625 0.057487,0 0.1035156,0.0041 0.1035156,0.00977 0,0.00563 -0.034887,0.035036 -0.078125,0.066406 -0.043238,0.031446 -0.080651,0.065526 -0.083984,0.074219 -0.0034,0.00869 0.00719,0.056184 0.023438,0.1054687 0.01663,0.049285 0.027484,0.095137 0.025391,0.1015625 -0.00212,0.00639 -0.042965,-0.016765 -0.091797,-0.050781 -0.048794,-0.033827 -0.091546,-0.0625 -0.095703,-0.0625 -0.00401,0 -0.045611,0.028862 -0.091797,0.0625 -0.046186,0.033713 -0.088153,0.060547 -0.091797,0.060547 -0.012095,0 -0.00566,-0.027625 0.023437,-0.1152344 0.015874,-0.047773 0.024893,-0.092492 0.021484,-0.1015624 -0.0034,-0.00892 -0.04086,-0.042849 -0.083984,-0.074219 -0.043276,-0.031484 -0.078125,-0.061115 -0.078125,-0.066406 0,-0.00529 0.045991,-0.00977 0.1035157,-0.00977 0.070337,0 0.1096284,-0.00618 0.1171874,-0.015625 0.00616,-0.00763 0.024386,-0.054861 0.041016,-0.1054687 0.016554,-0.050608 0.033771,-0.091797 0.039063,-0.091797 z m 1.4277344,0 c 0.00522,0 0.022433,0.041227 0.039062,0.091797 0.016743,0.05057 0.034968,0.09791 0.041016,0.1054687 0.00741,0.00945 0.044897,0.015625 0.1152343,0.015625 0.057487,0 0.1054688,0.0041 0.1054688,0.00977 0,0.00563 -0.034887,0.035036 -0.078125,0.066406 -0.043238,0.031446 -0.082604,0.065526 -0.085937,0.074219 -0.0034,0.00869 0.00719,0.056184 0.023437,0.1054687 0.01663,0.049285 0.029438,0.095137 0.027344,0.1015625 -0.00212,0.00639 -0.044919,-0.016765 -0.09375,-0.050781 -0.048794,-0.033827 -0.091546,-0.0625 -0.095703,-0.0625 -0.00401,0 -0.045611,0.028862 -0.091797,0.0625 -0.046186,0.033713 -0.086204,0.060547 -0.089844,0.060547 -0.012094,0 -0.00762,-0.027625 0.021484,-0.1152344 0.015874,-0.047773 0.026847,-0.092492 0.023437,-0.1015624 -0.0034,-0.00892 -0.04086,-0.042849 -0.083984,-0.074219 -0.043313,-0.031484 -0.078125,-0.061115 -0.078125,-0.066406 0,-0.00529 0.045991,-0.00977 0.1035156,-0.00977 0.070337,0 0.1076753,-0.00618 0.1152344,-0.015625 0.00616,-0.00763 0.024386,-0.054861 0.041016,-0.1054687 0.016554,-0.050608 0.035724,-0.091797 0.041016,-0.091797 z M 0.99023438,5.5488281 c 0.009071,0 0.0209819,0.021679 0.0292968,0.050781 0.00756,0.02759 0.023376,0.070002 0.033203,0.095703 l 0.017578,0.046875 0.1054687,0.00391 c 0.058696,0.00189 0.1062616,0.00762 0.1074219,0.013672 0.00117,0.00612 -0.033728,0.038565 -0.076172,0.070312 -0.042482,0.031559 -0.077988,0.062312 -0.080078,0.068359 -0.00189,0.0062 0.00756,0.051824 0.023437,0.1015625 0.042747,0.1353449 0.045153,0.1355572 -0.064453,0.056641 C 1.0433422,6.0258375 0.99968319,6 0.99023438,6 c -0.009487,0 -0.0516839,0.026027 -0.09375,0.056641 -0.10945512,0.079786 -0.11042552,0.07902 -0.0683594,-0.052734 0.0154961,-0.047773 0.0292213,-0.092806 0.0292969,-0.099609 7.559e-5,-0.00692 -0.0377985,-0.0414 -0.0839844,-0.076172 -0.0460346,-0.034734 -0.0817647,-0.068549 -0.078125,-0.074219 0.003628,-0.00567 0.0539549,-0.00977 0.11132812,-0.00977 h 0.10351563 l 0.0175781,-0.046875 c 0.009827,-0.026041 0.0252661,-0.070066 0.0332031,-0.097656 0.007937,-0.029027 0.020226,-0.050781 0.0292969,-0.050781 z m 1.42773442,0 c 0.00907,0 0.020982,0.021679 0.029297,0.050781 0.00756,0.02759 0.021423,0.070002 0.03125,0.095703 l 0.017578,0.046875 0.1054687,0.00391 c 0.058696,0.00189 0.1062616,0.00762 0.1074219,0.013672 0.00117,0.00612 -0.031775,0.038565 -0.074219,0.070312 -0.042482,0.031559 -0.079941,0.062312 -0.082031,0.068359 -0.00189,0.0062 0.00952,0.051824 0.025391,0.1015625 0.042746,0.1353449 0.0432,0.1355572 -0.066406,0.056641 C 2.4691235,6.0258375 2.4274176,6 2.4179688,6 2.4084788,6 2.3662848,6.026027 2.3242188,6.056641 2.2147636,6.136427 2.2137932,6.135661 2.2558598,6.003907 2.2713558,5.956134 2.2831278,5.911101 2.2832038,5.904298 2.2832794,5.897378 2.2454048,5.862898 2.1992198,5.828126 2.1531848,5.793392 2.1194078,5.759577 2.1230478,5.753907 c 0.00363,-0.00567 0.052002,-0.00977 0.109375,-0.00977 h 0.1054687 l 0.017578,-0.046875 c 0.00983,-0.026041 0.023313,-0.070066 0.03125,-0.097656 0.00794,-0.029027 0.022179,-0.050781 0.03125,-0.050781 z m 1.4257812,0 c 0.00907,0 0.022935,0.021679 0.03125,0.050781 0.00756,0.02759 0.021423,0.070002 0.03125,0.095703 l 0.017578,0.046875 0.1054688,0.00391 c 0.058696,0.00189 0.1062578,0.00762 0.1074219,0.013672 0.00117,0.00612 -0.033728,0.038565 -0.076172,0.070312 -0.042482,0.031559 -0.077984,0.062312 -0.080078,0.068359 -0.00189,0.0062 0.00952,0.051824 0.025391,0.1015625 0.042746,0.1353449 0.0432,0.1355572 -0.066406,0.056641 C 3.8968578,6.0258375 3.8531988,6 3.84375,6 3.8344082,6 3.79142,6.0266629 3.75,6.0566406 3.6431412,6.1345099 3.6418641,6.1346067 3.6835938,6.0039062 3.6990898,5.956133 3.7108581,5.9111 3.7109375,5.9042969 c 7.56e-5,-0.00692 -0.037799,-0.0414 -0.083984,-0.076172 -0.046035,-0.034734 -0.081765,-0.068549 -0.078125,-0.074219 0.00363,-0.00567 0.053955,-0.00977 0.1113281,-0.00977 H 3.765625 l 0.017578,-0.046875 c 0.00983,-0.026041 0.023313,-0.070066 0.03125,-0.097656 0.00794,-0.029027 0.020226,-0.050781 0.029297,-0.050781 z m 1.4277344,0 c 0.00907,0 0.020982,0.021679 0.029297,0.050781 0.00756,0.02759 0.023376,0.070002 0.033203,0.095703 l 0.017578,0.046875 0.1054687,0.00391 c 0.058696,0.00189 0.1062578,0.00762 0.1074219,0.013672 0.00117,0.00612 -0.033728,0.038565 -0.076172,0.070312 -0.042482,0.031559 -0.077984,0.062312 -0.080078,0.068359 -0.00189,0.0062 0.00952,0.051824 0.025391,0.1015625 0.042746,0.1353449 0.0432,0.1355572 -0.066406,0.056641 C 5.3245922,6.0258375 5.2809332,6 5.2714844,6 5.2619944,6 5.2198004,6.026027 5.1777344,6.056641 5.0682793,6.136427 5.0673089,6.135661 5.1093754,6.003907 5.1248714,5.956134 5.1385924,5.911101 5.1386724,5.904298 5.138748,5.897378 5.1008734,5.862898 5.0546884,5.828126 5.0086534,5.793392 4.9729234,5.759577 4.9765634,5.753907 c 0.00359,-0.00567 0.053955,-0.00977 0.1113281,-0.00977 h 0.1035156 l 0.017578,-0.046875 c 0.00983,-0.026041 0.025266,-0.070066 0.033203,-0.097656 0.00794,-0.029027 0.020226,-0.050781 0.029297,-0.050781 z M 0.7109375,7.3261719 A 5.4611373,5.4611373 0 0 0 1.0117188,8.1972656 H 8.1269531 10.996094 A 5.4611373,5.4611373 0 0 0 11.291016,7.3261719 H 8.1269531 Z m 0.7792969,1.7402343 a 5.4611373,5.4611373 0 0 0 0.7265625,0.859375 H 8.1269531 9.7949219 A 5.4611373,5.4611373 0 0 0 10.519531,9.0664062 H 8.1269531 Z M 3.390625,10.794922 a 5.4611373,5.4611373 0 0 0 2.6113281,0.664062 5.4611373,5.4611373 0 0 0 2.5996094,-0.664062 H 8.1269531 Z"
       transform="matrix(0.26458333,0,0,0.26458333,84.591072,55.019642)"
       id="path1546"
       inkscape:connector-curvature="0" />
    <path
       style="fill:#3b3a6d;stroke-width:0.01114961"
       d="m 5.984375,0.53710938 a 5.4611373,5.4611373 0 0 0 -1.9257812,0.359375 c 0.044137,0.001174 0.087891,0.003405 0.087891,0.007813 0,0.005367 -0.035001,0.0350362 -0.078125,0.0664062 -0.043124,0.0314457 -0.082528,0.0651479 -0.085938,0.0742188 -0.00378,0.00892 0.00719,0.056184 0.023438,0.1054687 0.016252,0.049285 0.027636,0.094759 0.025391,0.1015625 -0.00219,0.00665 -0.042108,-0.016387 -0.089844,-0.050781 -0.047698,-0.03428 -0.091168,-0.0625 -0.095703,-0.0625 -0.00457,0 -0.040544,0.022813 -0.080078,0.050781 -0.097285,0.069014 -0.109375,0.077491 -0.109375,0.058594 0,-0.00835 0.011848,-0.052566 0.027344,-0.097656 0.015118,-0.04509 0.027442,-0.089783 0.027344,-0.099609 -2.7e-6,-2.319e-4 -0.00191,-0.00169 -0.00195,-0.00195 A 5.4611373,5.4611373 0 0 0 3.15625,1.3417969 c 0.00195,0.00478 0.0042,0.0045 0.00586,0.00977 0.00869,0.027591 0.021801,0.071578 0.03125,0.097656 l 0.017578,0.046875 h 0.1035156 c 0.057373,0 0.1076885,0.0041 0.1113281,0.00977 0.00363,0.00582 -0.031939,0.039447 -0.078125,0.074219 -0.046148,0.034772 -0.082031,0.068991 -0.082031,0.076172 0,0.00737 0.011848,0.050613 0.027344,0.095703 0.029102,0.085795 0.033893,0.1113281 0.019531,0.1113281 -0.00472,0 -0.043871,-0.024073 -0.085937,-0.054687 -0.042028,-0.030803 -0.083545,-0.056641 -0.09375,-0.056641 -0.010091,0 -0.053108,0.026027 -0.095703,0.056641 h -0.00195 c -0.042595,0.030803 -0.081024,0.054687 -0.085937,0.054687 -0.014362,0 -0.00957,-0.025457 0.019531,-0.1113281 0.015496,-0.045052 0.027344,-0.088522 0.027344,-0.095703 0,-0.00737 -0.037799,-0.0414 -0.083984,-0.076172 -0.028102,-0.021203 -0.033274,-0.030714 -0.046875,-0.044922 A 5.4611373,5.4611373 0 0 0 2.1660156,2.1152344 c 0.019145,-0.00188 0.024261,-0.00586 0.054687,-0.00586 0.070337,0 0.1076753,-0.00422 0.1152344,-0.013672 0.00616,-0.00763 0.024386,-0.056852 0.041016,-0.1074219 0.016554,-0.050608 0.035724,-0.091797 0.041016,-0.091797 0.00522,0 0.022432,0.041189 0.039062,0.091797 0.016743,0.05057 0.034968,0.099863 0.041016,0.1074219 0.00741,0.00945 0.044897,0.013672 0.1152343,0.013672 0.057487,0 0.1054688,0.00447 0.1054688,0.00977 0,0.00522 -0.037987,0.035477 -0.083984,0.068359 -0.045846,0.032882 -0.083984,0.068298 -0.083984,0.078125 0,0.00986 0.011848,0.05452 0.027344,0.099609 0.015496,0.04509 0.029297,0.086884 0.029297,0.091797 0,0.019956 -0.0296,0.00645 -0.1015625,-0.046875 -0.041348,-0.030803 -0.081087,-0.056641 -0.087891,-0.056641 -0.00699,0 -0.045749,0.026026 -0.087891,0.056641 h -0.00195 c -0.073436,0.053367 -0.099609,0.066529 -0.099609,0.046875 0,-0.00506 0.011848,-0.046707 0.027344,-0.091797 0.015496,-0.04509 0.027344,-0.089405 0.027344,-0.099609 0,-0.010469 -0.036967,-0.044865 -0.083984,-0.078125 -0.032103,-0.022919 -0.042645,-0.035952 -0.056641,-0.048828 A 5.4611373,5.4611373 0 0 0 1.7402344,2.5898438 c 0.00448,0.011482 0.00709,0.00961 0.011719,0.023437 l 0.03125,0.097656 h 0.1113281 c 0.065726,0 0.109375,0.00529 0.109375,0.011719 0,0.00609 -0.036034,0.03825 -0.082031,0.072266 -0.045846,0.034016 -0.083984,0.067038 -0.083984,0.074219 0,0.00707 0.012667,0.054672 0.029297,0.1054688 0.016252,0.050759 0.027217,0.09583 0.023437,0.099609 -0.00401,0.00397 -0.040721,-0.017017 -0.082031,-0.046875 -0.04131,-0.029934 -0.081529,-0.057209 -0.089844,-0.0625 -0.01028,-0.00627 -0.04245,0.00802 -0.095703,0.046875 -0.1243087,0.090671 -0.1255837,0.088911 -0.080078,-0.044922 0.015496,-0.04509 0.027344,-0.087766 0.027344,-0.095703 0,-0.00246 -0.019227,-0.016837 -0.025391,-0.023438 A 5.4611373,5.4611373 0 0 0 1.2402344,3.328125 c 0.019119,0.00171 0.050781,0.0031 0.050781,0.00586 0,0.00518 -0.037987,0.035855 -0.083984,0.068359 -0.0086,0.00611 -0.00779,0.00768 -0.015625,0.013672 a 5.4611373,5.4611373 0 0 0 -0.052734,0.109375 c 0.00505,0.018662 0.00584,0.027991 0.013672,0.052734 0.015496,0.047773 0.027264,0.089215 0.027344,0.09375 2.784e-4,0.016946 -0.031187,1.475e-4 -0.091797,-0.042969 a 5.4611373,5.4611373 0 0 0 -0.34179685,0.90625 c 0.0213111,-0.00261 0.0299606,-0.00415 0.0625,-0.00586 l 0.10742187,-0.00586 0.03125,-0.095703 c 0.016441,-0.052157 0.0357876,-0.09375 0.0429688,-0.09375 0.00737,0 0.0263388,0.04163 0.0429687,0.09375 l 0.03125,0.095703 0.1074219,0.00586 C 1.2754349,4.534586 1.309346,4.544294 1.285157,4.560546 1.203972,4.6156902 1.125,4.6784291 1.125,4.6875 c 0,0.00624 0.01147,0.0535 0.027344,0.1054688 0.015874,0.051969 0.027077,0.097923 0.023437,0.1015624 -0.00367,0.00367 -0.044376,-0.020986 -0.089844,-0.052734 -0.045468,-0.031635 -0.0900972,-0.056641 -0.0976563,-0.056641 -0.007635,0 -0.0478154,0.024073 -0.0898438,0.054688 -0.0717732,0.052611 -0.0976563,0.065836 -0.0976563,0.048828 0,-0.00401 0.0126669,-0.05209 0.0292969,-0.1074219 L 0.86132812,4.6796875 0.828125,4.6582031 C 0.76594583,4.6130727 0.75509854,4.595727 0.73632812,4.5761719 A 5.4611373,5.4611373 0 0 0 0.54101562,5.9980469 5.4611373,5.4611373 0 0 0 0.56445312,6.46875 H 1.6972656 c 2.5499603,0 4.277531,-0.00372 4.28125,-0.00977 0.00526,-0.0083 0.00854,-1.6952231 0.00781,-5.62890628 z M 5.2714844,0.68164062 c 0.00522,0 0.024386,0.041189 0.041016,0.0917969 0.016743,0.0505701 0.034968,0.0979097 0.041016,0.10546875 0.00741,0.009449 0.044897,0.015625 0.1152344,0.015625 0.057487,0 0.1035156,0.004474 0.1035156,0.009766 0,0.005367 -0.035001,0.0350362 -0.078125,0.0664062 -0.043124,0.0314457 -0.080575,0.0651479 -0.083984,0.0742188 -0.00378,0.00892 0.00719,0.056184 0.023438,0.1054687 0.016252,0.049285 0.027639,0.094759 0.025391,0.1015625 -0.00219,0.00665 -0.042108,-0.016387 -0.089844,-0.050781 -0.047698,-0.03428 -0.091168,-0.0625 -0.095703,-0.0625 -0.00457,0 -0.040544,0.022813 -0.080078,0.050781 -0.097285,0.069014 -0.1113282,0.077491 -0.1113282,0.058594 0,-0.00835 0.013801,-0.052566 0.029297,-0.097656 0.015118,-0.04509 0.027442,-0.089783 0.027344,-0.099609 -1.134e-4,-0.00964 -0.038101,-0.045243 -0.083984,-0.078125 -0.046035,-0.0326551 -0.083984,-0.0626901 -0.083984,-0.0683594 0,-0.005669 0.047944,-0.009766 0.1054688,-0.009766 0.070337,0 0.1076753,-0.006176 0.1152343,-0.015625 0.00616,-0.007635 0.024386,-0.0548987 0.041016,-0.10546875 0.016554,-0.0506079 0.033771,-0.0917969 0.039063,-0.0917969 z M 4.5585938,1.3007812 c 0.00831,0 0.020604,0.023191 0.029297,0.050781 0.00869,0.027591 0.023754,0.071578 0.033203,0.097656 l 0.017578,0.046875 h 0.1035156 c 0.057373,0 0.1076884,0.0041 0.1113281,0.00977 0.00363,0.00582 -0.031939,0.039447 -0.078125,0.074219 -0.046186,0.034772 -0.083984,0.068991 -0.083984,0.076172 0,0.00737 0.013801,0.050613 0.029297,0.095703 0.029102,0.085795 0.03194,0.1113281 0.017578,0.1113281 -0.00472,0 -0.041918,-0.024073 -0.083984,-0.054687 -0.042066,-0.030803 -0.085498,-0.056641 -0.095703,-0.056641 -0.010129,0 -0.053108,0.026027 -0.095703,0.056641 -0.042595,0.030803 -0.081024,0.054687 -0.085937,0.054687 -0.014362,0 -0.00957,-0.025457 0.019531,-0.1113281 0.015496,-0.045052 0.027344,-0.088522 0.027344,-0.095703 0,-0.00737 -0.037799,-0.0414 -0.083984,-0.076172 -0.046035,-0.034734 -0.081765,-0.068549 -0.078125,-0.074219 0.00363,-0.00567 0.053955,-0.00977 0.1113281,-0.00977 h 0.1054687 l 0.015625,-0.046875 c 0.00945,-0.026041 0.02451,-0.070066 0.033203,-0.097656 0.00869,-0.027515 0.022935,-0.050781 0.03125,-0.050781 z m -1.46875,0.078125 A 5.4611373,5.4611373 0 0 0 2.9160156,1.4980469 c 0.013531,-6.228e-4 0.01396,-0.00195 0.029297,-0.00195 h 0.1054687 l 0.017578,-0.046875 c 0.00677,-0.018671 0.013559,-0.045869 0.021484,-0.070313 z M 3.84375,1.8964844 c 0.00522,0 0.024386,0.041189 0.041016,0.091797 0.016743,0.05057 0.034968,0.099863 0.041016,0.1074219 0.00741,0.00945 0.044897,0.013672 0.1152344,0.013672 0.057487,0 0.1035156,0.00447 0.1035156,0.00977 0,0.00522 -0.036034,0.035477 -0.082031,0.068359 -0.045846,0.032882 -0.083984,0.068298 -0.083984,0.078125 0,0.00986 0.011848,0.05452 0.027344,0.099609 0.015496,0.04509 0.027344,0.086884 0.027344,0.091797 0,0.019956 -0.027647,0.00645 -0.099609,-0.046875 -0.041386,-0.030803 -0.081088,-0.056641 -0.087891,-0.056641 -0.00699,0 -0.047702,0.026026 -0.089844,0.056641 -0.073436,0.053367 -0.1015625,0.066529 -0.1015625,0.046875 0,-0.00506 0.013801,-0.046707 0.029297,-0.091797 0.015496,-0.04509 0.027344,-0.089405 0.027344,-0.099609 0,-0.010469 -0.036967,-0.044865 -0.083984,-0.078125 -0.045846,-0.032731 -0.083984,-0.063068 -0.083984,-0.068359 0,-0.00529 0.047982,-0.00977 0.1054687,-0.00977 0.070337,0 0.1076753,-0.00422 0.1152344,-0.013672 0.00616,-0.00763 0.024386,-0.056852 0.041016,-0.1074219 0.016554,-0.050608 0.033771,-0.091797 0.039063,-0.091797 z m 1.4277344,0 c 0.00522,0 0.022433,0.041189 0.039063,0.091797 0.016743,0.05057 0.034968,0.099863 0.041016,0.1074219 0.00741,0.00945 0.04685,0.013672 0.1171875,0.013672 0.057487,0 0.1035156,0.00447 0.1035156,0.00977 0,0.00522 -0.037987,0.035477 -0.083984,0.068359 -0.045846,0.032882 -0.082031,0.068298 -0.082031,0.078125 0,0.00986 0.011848,0.05452 0.027344,0.099609 0.015496,0.04509 0.027344,0.086884 0.027344,0.091797 0,0.019956 -0.027647,0.00645 -0.099609,-0.046875 -0.041386,-0.030803 -0.081087,-0.056641 -0.087891,-0.056641 -0.00699,0 -0.047702,0.026026 -0.089844,0.056641 -0.073436,0.053367 -0.1015626,0.066529 -0.1015626,0.046875 0,-0.00506 0.011848,-0.046707 0.027344,-0.091797 0.015496,-0.04509 0.029297,-0.089405 0.029297,-0.099609 0,-0.010469 -0.036967,-0.044865 -0.083984,-0.078125 -0.045846,-0.032731 -0.083984,-0.063068 -0.083984,-0.068359 0,-0.00529 0.046029,-0.00977 0.1035157,-0.00977 0.070337,0 0.1096284,-0.00422 0.1171874,-0.013672 0.00616,-0.00763 0.024386,-0.056852 0.041016,-0.1074219 0.016554,-0.050608 0.033771,-0.091797 0.039063,-0.091797 z M 3.1308594,2.515625 c 0.00881,0 0.027599,0.040056 0.046875,0.097656 l 0.033203,0.097656 h 0.1113281 c 0.065764,0 0.109375,0.00529 0.109375,0.011719 0,0.00609 -0.037988,0.03825 -0.083984,0.072266 -0.045846,0.034016 -0.082031,0.067038 -0.082031,0.074219 0,0.00707 0.012667,0.054672 0.029297,0.1054688 0.016252,0.050759 0.027217,0.09583 0.023437,0.099609 -0.00401,0.00397 -0.042674,-0.017017 -0.083984,-0.046875 -0.04131,-0.029934 -0.081529,-0.057209 -0.089844,-0.0625 -0.01028,-0.00627 -0.040496,0.00802 -0.09375,0.046875 -0.1242708,0.090671 -0.1275367,0.088911 -0.082031,-0.044922 0.015496,-0.04509 0.029297,-0.087766 0.029297,-0.095703 0,-0.00809 -0.037987,-0.042156 -0.083984,-0.076172 -0.045846,-0.034016 -0.083984,-0.066218 -0.083984,-0.072266 0,-0.00605 0.048059,-0.011719 0.1113281,-0.011719 h 0.109375 l 0.033203,-0.097656 c 0.019049,-0.0576 0.038182,-0.097656 0.046875,-0.097656 z m 1.4277344,0 c 0.00881,0 0.027599,0.040056 0.046875,0.097656 l 0.033203,0.097656 h 0.109375 c 0.065726,0 0.1113281,0.00529 0.1113281,0.011719 0,0.00609 -0.037987,0.03825 -0.083984,0.072266 -0.045846,0.034016 -0.083984,0.067038 -0.083984,0.074219 0,0.00707 0.01462,0.054672 0.03125,0.1054688 0.016252,0.050759 0.025264,0.09583 0.021484,0.099609 -0.00401,0.00397 -0.040721,-0.017017 -0.082031,-0.046875 -0.04131,-0.029934 -0.081529,-0.057209 -0.089844,-0.0625 -0.01028,-0.00627 -0.040496,0.00802 -0.09375,0.046875 -0.1242708,0.090671 -0.1275367,0.088911 -0.082031,-0.044922 0.015496,-0.04509 0.027344,-0.087766 0.027344,-0.095703 0,-0.00809 -0.037987,-0.042156 -0.083984,-0.076172 -0.045846,-0.034016 -0.082031,-0.066218 -0.082031,-0.072266 0,-0.00605 0.046106,-0.011719 0.109375,-0.011719 H 4.478517 l 0.03125,-0.097656 c 0.019049,-0.0576 0.040135,-0.097656 0.048828,-0.097656 z m -2.140625,0.5976562 c 0.00499,0 0.022432,0.041227 0.039062,0.091797 0.016668,0.05057 0.037048,0.09791 0.046875,0.1054688 0.011074,0.00869 0.05543,0.013672 0.1171876,0.013672 0.054047,0 0.097656,0.00447 0.097656,0.00977 0,0.00518 -0.037987,0.035855 -0.083984,0.068359 -0.045846,0.032542 -0.083984,0.066282 -0.083984,0.074219 0,0.00801 0.012226,0.053789 0.027344,0.1015625 0.015496,0.047773 0.029218,0.089215 0.029297,0.09375 3.023e-4,0.018406 -0.026475,0.00634 -0.099609,-0.046875 -0.042142,-0.030803 -0.082285,-0.054687 -0.089844,-0.054687 -0.00737,0 -0.050371,0.024728 -0.091797,0.054687 -0.070416,0.050945 -0.097965,0.065097 -0.097656,0.046875 0,-0.00461 0.012226,-0.045977 0.027344,-0.09375 0.015118,-0.047773 0.027344,-0.093625 0.027344,-0.1015625 0,-0.00805 -0.037988,-0.041337 -0.083984,-0.074219 -0.045846,-0.033033 -0.082031,-0.065399 -0.082031,-0.070313 0,-0.00491 0.043647,-0.00781 0.097656,-0.00781 0.061757,0 0.1042737,-0.00498 0.1152343,-0.013672 0.00968,-0.00763 0.032198,-0.054899 0.048828,-0.1054688 0.016706,-0.050608 0.033771,-0.091797 0.039063,-0.091797 z m 1.4257812,0 c 0.00499,0 0.024386,0.041227 0.041016,0.091797 0.016668,0.05057 0.037048,0.09791 0.046875,0.1054688 0.011074,0.00869 0.053477,0.013672 0.1152344,0.013672 0.054047,0 0.099609,0.00447 0.099609,0.00977 0,0.00518 -0.037988,0.035855 -0.083984,0.068359 -0.045846,0.032542 -0.083984,0.066282 -0.083984,0.074219 0,0.00801 0.012226,0.053789 0.027344,0.1015625 0.015496,0.047773 0.027264,0.089215 0.027344,0.09375 3.024e-4,0.018406 -0.024522,0.00634 -0.097656,-0.046875 -0.042142,-0.030803 -0.084238,-0.054687 -0.091797,-0.054687 -0.00748,0 -0.047702,0.024073 -0.089844,0.054687 -0.073058,0.053065 -0.099923,0.065395 -0.099609,0.046875 0,-0.00461 0.014179,-0.045977 0.029297,-0.09375 0.015118,-0.047773 0.027344,-0.093625 0.027344,-0.1015625 0,-0.00805 -0.037987,-0.041337 -0.083984,-0.074219 -0.045808,-0.033033 -0.083984,-0.065399 -0.083984,-0.070313 0,-0.00491 0.0456,-0.00781 0.099609,-0.00781 0.061757,0 0.1042738,-0.00498 0.1152344,-0.013672 0.00968,-0.00763 0.030245,-0.054899 0.046875,-0.1054688 0.016706,-0.050608 0.033771,-0.091797 0.039063,-0.091797 z m 1.4277344,0 c 0.00499,0 0.022433,0.041227 0.039063,0.091797 0.016668,0.05057 0.039001,0.09791 0.048828,0.1054688 0.011074,0.00869 0.053477,0.013672 0.1152344,0.013672 0.054047,0 0.097656,0.00447 0.097656,0.00977 0,0.00518 -0.037987,0.035855 -0.083984,0.068359 -0.045846,0.032542 -0.082031,0.066282 -0.082031,0.074219 0,0.00801 0.012226,0.053789 0.027344,0.1015625 0.015496,0.047773 0.027264,0.089215 0.027344,0.09375 3.024e-4,0.018406 -0.026476,0.00634 -0.099609,-0.046875 -0.042142,-0.030803 -0.082285,-0.054687 -0.089844,-0.054687 -0.00748,0 -0.047702,0.024073 -0.089844,0.054687 -0.073058,0.053065 -0.099923,0.065395 -0.099609,0.046875 0,-0.00461 0.012226,-0.045977 0.027344,-0.09375 0.015118,-0.047773 0.029297,-0.093625 0.029297,-0.1015625 0,-0.00805 -0.037988,-0.041337 -0.083984,-0.074219 -0.045808,-0.033033 -0.083984,-0.065399 -0.083984,-0.070313 0,-0.00491 0.043647,-0.00781 0.097656,-0.00781 0.061757,0 0.1062268,-0.00498 0.1171875,-0.013672 0.00968,-0.00763 0.030245,-0.054899 0.046875,-0.1054688 0.016705,-0.050608 0.033771,-0.091797 0.039063,-0.091797 z M 1.703125,3.7148438 c 0.00522,0 0.024386,0.041227 0.041016,0.091797 0.016743,0.05057 0.034968,0.09791 0.041016,0.1054688 0.00741,0.00945 0.044897,0.013672 0.1152344,0.013672 0.057487,0 0.1035156,0.00447 0.1035156,0.00977 0,0.0054 -0.036034,0.039447 -0.082031,0.074219 -0.045846,0.034583 -0.083984,0.067038 -0.083984,0.074219 0,0.00718 0.012667,0.054672 0.029297,0.1054687 0.01663,0.050797 0.027217,0.09583 0.023437,0.099609 -0.00389,0.00389 -0.045939,-0.020294 -0.09375,-0.054687 -0.047811,-0.034507 -0.094381,-0.061462 -0.1015625,-0.058594 -0.00737,0.00283 -0.047249,0.031508 -0.089844,0.0625 -0.042633,0.03103 -0.080265,0.056641 -0.083984,0.056641 -0.012473,0 -0.00844,-0.028708 0.019531,-0.1113281 0.015496,-0.045052 0.029297,-0.089719 0.029297,-0.097656 0,-0.00797 -0.037988,-0.0414 -0.083984,-0.076172 -0.045846,-0.03462 -0.083984,-0.068927 -0.083984,-0.074219 0,-0.00529 0.047982,-0.00977 0.1054687,-0.00977 0.070337,0 0.1076753,-0.00422 0.1152344,-0.013672 0.00616,-0.00763 0.024386,-0.054861 0.041016,-0.1054688 0.016554,-0.050608 0.033771,-0.091797 0.039063,-0.091797 z m 1.4277344,0 c 0.00522,0 0.022433,0.041227 0.039063,0.091797 0.016743,0.05057 0.034968,0.09791 0.041016,0.1054688 0.00741,0.00945 0.046851,0.013672 0.1171875,0.013672 0.057487,0 0.1035156,0.00447 0.1035156,0.00977 0,0.0054 -0.037988,0.039447 -0.083984,0.074219 -0.045846,0.034583 -0.083984,0.067038 -0.083984,0.074219 0,0.00718 0.01462,0.054672 0.03125,0.1054687 0.01663,0.050797 0.027217,0.09583 0.023437,0.099609 -0.00389,0.00389 -0.045939,-0.020294 -0.09375,-0.054687 -0.047811,-0.034507 -0.094381,-0.061462 -0.1015625,-0.058594 -0.00737,0.00283 -0.047248,0.031508 -0.089844,0.0625 H 3.03125 c -0.042633,0.03103 -0.080265,0.056641 -0.083984,0.056641 -0.012472,0 -0.00648,-0.028708 0.021484,-0.1113281 0.015496,-0.045052 0.027344,-0.089719 0.027344,-0.097656 0,-0.00797 -0.036034,-0.0414 -0.082031,-0.076172 -0.045846,-0.03462 -0.083984,-0.068927 -0.083984,-0.074219 0,-0.00529 0.045991,-0.00977 0.1035157,-0.00977 0.070337,0 0.1076753,-0.00422 0.1152343,-0.013672 0.00616,-0.00763 0.026339,-0.054861 0.042969,-0.1054688 0.016554,-0.050608 0.033771,-0.091797 0.039063,-0.091797 z m 1.4277344,0 c 0.00522,0 0.022433,0.041227 0.039062,0.091797 0.016743,0.05057 0.034968,0.09791 0.041016,0.1054688 0.00741,0.00945 0.044897,0.013672 0.1152343,0.013672 0.057487,0 0.1054688,0.00447 0.1054688,0.00977 0,0.0054 -0.037987,0.039447 -0.083984,0.074219 -0.045846,0.034583 -0.083984,0.067038 -0.083984,0.074219 0,0.00718 0.01462,0.054672 0.03125,0.1054687 0.01663,0.050797 0.025264,0.09583 0.021484,0.099609 -0.00389,0.00389 -0.045939,-0.020294 -0.09375,-0.054687 -0.047811,-0.034507 -0.092428,-0.061462 -0.099609,-0.058594 -0.00737,0.00283 -0.049202,0.031508 -0.091797,0.0625 -0.042633,0.03103 -0.080265,0.056641 -0.083984,0.056641 -0.012472,0 -0.00648,-0.028708 0.021484,-0.1113281 0.015496,-0.045052 0.027344,-0.089719 0.027344,-0.097656 0,-0.00797 -0.037987,-0.0414 -0.083984,-0.076172 -0.045808,-0.03462 -0.083984,-0.068927 -0.083984,-0.074219 0,-0.00529 0.047982,-0.00977 0.1054687,-0.00977 0.070337,0 0.1076753,-0.00422 0.1152344,-0.013672 0.00616,-0.00763 0.024386,-0.054861 0.041016,-0.1054688 0.016554,-0.050608 0.035724,-0.091797 0.041016,-0.091797 z m -2.140625,0.6191406 c 0.00737,0 0.026339,0.04163 0.042969,0.09375 l 0.029297,0.095703 0.1074218,0.00586 c 0.1035591,0.00529 0.1394234,0.014998 0.1152344,0.03125 -0.081184,0.055143 -0.1621094,0.1178822 -0.1621094,0.1269531 0,0.00624 0.013423,0.0535 0.029297,0.1054688 0.015874,0.051969 0.025124,0.097923 0.021484,0.1015624 -0.00367,0.00367 -0.042423,-0.020986 -0.087891,-0.052734 -0.045468,-0.031635 -0.090097,-0.056641 -0.097656,-0.056641 -0.00763,0 -0.047815,0.024073 -0.089844,0.054688 -0.071773,0.052611 -0.099609,0.065836 -0.099609,0.048828 0,-0.00401 0.01462,-0.05209 0.03125,-0.1074219 l 0.029297,-0.1015625 -0.03125,-0.021484 C 2.166398,4.5932708 2.1146686,4.5478188 2.1210938,4.5410156 c 0.00404,-0.00378 0.056198,-0.00862 0.1152343,-0.011719 L 2.34375,4.5234366 2.373047,4.4277336 c 0.016441,-0.052157 0.037741,-0.09375 0.044922,-0.093749 z m 1.4257812,0 c 0.00737,0 0.028292,0.04163 0.044922,0.09375 l 0.029297,0.095703 0.1074218,0.00586 c 0.1035591,0.00529 0.1374703,0.014998 0.1132813,0.03125 -0.081184,0.055143 -0.1601563,0.1178822 -0.1601563,0.1269531 0,0.00624 0.013423,0.0535 0.029297,0.1054688 0.015874,0.051969 0.025124,0.097923 0.021484,0.1015624 -0.00367,0.00367 -0.044376,-0.020986 -0.089844,-0.052734 -0.045468,-0.031635 -0.088144,-0.056641 -0.095703,-0.056641 -0.00763,0 -0.047815,0.024073 -0.089844,0.054688 h -0.00195 c -0.071773,0.052611 -0.097656,0.065836 -0.097656,0.048828 0,-0.00401 0.01462,-0.05209 0.03125,-0.1074219 l 0.029297,-0.1015625 -0.03125,-0.021484 C 3.5941701,4.5932708 3.5424029,4.5478188 3.5488281,4.5410156 c 0.00404,-0.00378 0.056198,-0.00862 0.1152344,-0.011719 l 0.1074219,-0.00586 0.029297,-0.095703 c 0.016441,-0.052157 0.035788,-0.09375 0.042969,-0.093749 z m 1.4277344,0 c 0.00737,0 0.026339,0.04163 0.042969,0.09375 l 0.03125,0.095703 0.1074219,0.00586 c 0.1035591,0.00529 0.1374702,0.014998 0.1132812,0.03125 C 5.485222,4.6156902 5.40625,4.6784291 5.40625,4.6875 c 0,0.00624 0.01147,0.0535 0.027344,0.1054688 0.015874,0.051969 0.027077,0.097923 0.023437,0.1015624 -0.00367,0.00367 -0.044376,-0.020986 -0.089844,-0.052734 -0.045468,-0.031635 -0.088144,-0.056641 -0.095703,-0.056641 -0.00763,0 -0.049769,0.024073 -0.091797,0.054688 -0.071773,0.052611 -0.097656,0.065836 -0.097656,0.048828 0,-0.00401 0.012667,-0.05209 0.029297,-0.1074219 L 5.142578,4.6796878 5.111328,4.6582038 C 5.0219045,4.5932708 4.9701373,4.5478188 4.9765625,4.5410156 c 0.00404,-0.00378 0.054245,-0.00862 0.1132813,-0.011719 l 0.1074218,-0.00586 0.03125,-0.095703 c 0.016441,-0.052157 0.035788,-0.09375 0.042969,-0.093749 z M 1.703125,4.9296875 c 0.00522,0 0.024386,0.041227 0.041016,0.091797 0.016743,0.05057 0.034968,0.09791 0.041016,0.1054687 0.00741,0.00945 0.044897,0.015625 0.1152344,0.015625 0.057487,0 0.1035156,0.0041 0.1035156,0.00977 0,0.00563 -0.034887,0.035036 -0.078125,0.066406 -0.043238,0.031446 -0.080651,0.065526 -0.083984,0.074219 -0.0034,0.00869 0.00719,0.056184 0.023437,0.1054687 0.01663,0.049285 0.027484,0.095137 0.025391,0.1015625 -0.00212,0.00639 -0.042965,-0.016765 -0.091797,-0.050781 -0.048794,-0.033827 -0.091546,-0.0625 -0.095703,-0.0625 -0.00401,0 -0.045611,0.028862 -0.091797,0.0625 -0.046186,0.033713 -0.086204,0.060547 -0.089844,0.060547 -0.012095,0 -0.00762,-0.027625 0.021484,-0.1152344 C 1.558843,5.346763 1.569816,5.302044 1.566406,5.2929736 1.563006,5.2840536 1.523593,5.2501246 1.480469,5.2187546 1.437193,5.1872706 1.402344,5.1576396 1.402344,5.1523486 c 0,-0.00529 0.047982,-0.00977 0.1054687,-0.00977 0.070337,0 0.1076753,-0.00618 0.1152344,-0.015625 0.00616,-0.00763 0.024386,-0.054861 0.041016,-0.1054687 0.016554,-0.050608 0.033771,-0.091797 0.039063,-0.091797 z m 1.4277344,0 c 0.00522,0 0.022433,0.041227 0.039063,0.091797 0.016743,0.05057 0.034968,0.09791 0.041016,0.1054687 0.00741,0.00945 0.046851,0.015625 0.1171875,0.015625 0.057487,0 0.1035156,0.0041 0.1035156,0.00977 0,0.00563 -0.034887,0.035036 -0.078125,0.066406 -0.043238,0.031446 -0.080651,0.065526 -0.083984,0.074219 -0.0034,0.00869 0.00719,0.056184 0.023438,0.1054687 0.01663,0.049285 0.027484,0.095137 0.025391,0.1015625 -0.00212,0.00639 -0.042965,-0.016765 -0.091797,-0.050781 -0.048794,-0.033827 -0.091546,-0.0625 -0.095703,-0.0625 -0.00401,0 -0.045611,0.028862 -0.091797,0.0625 -0.046186,0.033713 -0.088153,0.060547 -0.091797,0.060547 -0.012095,0 -0.00566,-0.027625 0.023437,-0.1152344 0.015874,-0.047773 0.024893,-0.092492 0.021484,-0.1015624 -0.0034,-0.00892 -0.04086,-0.042849 -0.083984,-0.074219 -0.043276,-0.031484 -0.078125,-0.061115 -0.078125,-0.066406 0,-0.00529 0.045991,-0.00977 0.1035157,-0.00977 0.070337,0 0.1096284,-0.00618 0.1171874,-0.015625 0.00616,-0.00763 0.024386,-0.054861 0.041016,-0.1054687 0.016554,-0.050608 0.033771,-0.091797 0.039063,-0.091797 z m 1.4277344,0 c 0.00522,0 0.022433,0.041227 0.039062,0.091797 0.016743,0.05057 0.034968,0.09791 0.041016,0.1054687 0.00741,0.00945 0.044897,0.015625 0.1152343,0.015625 0.057487,0 0.1054688,0.0041 0.1054688,0.00977 0,0.00563 -0.034887,0.035036 -0.078125,0.066406 -0.043238,0.031446 -0.082604,0.065526 -0.085937,0.074219 -0.0034,0.00869 0.00719,0.056184 0.023437,0.1054687 0.01663,0.049285 0.029438,0.095137 0.027344,0.1015625 -0.00212,0.00639 -0.044919,-0.016765 -0.09375,-0.050781 -0.048794,-0.033827 -0.091546,-0.0625 -0.095703,-0.0625 -0.00401,0 -0.045611,0.028862 -0.091797,0.0625 -0.046186,0.033713 -0.086204,0.060547 -0.089844,0.060547 -0.012094,0 -0.00762,-0.027625 0.021484,-0.1152344 0.015874,-0.047773 0.026847,-0.092492 0.023437,-0.1015624 -0.0034,-0.00892 -0.04086,-0.042849 -0.083984,-0.074219 -0.043313,-0.031484 -0.078125,-0.061115 -0.078125,-0.066406 0,-0.00529 0.045991,-0.00977 0.1035156,-0.00977 0.070337,0 0.1076753,-0.00618 0.1152344,-0.015625 0.00616,-0.00763 0.024386,-0.054861 0.041016,-0.1054687 0.016554,-0.050608 0.035724,-0.091797 0.041016,-0.091797 z M 0.99023438,5.5488281 c 0.009071,0 0.0209819,0.021679 0.0292968,0.050781 0.00756,0.02759 0.023376,0.070002 0.033203,0.095703 l 0.017578,0.046875 0.1054687,0.00391 c 0.058696,0.00189 0.1062616,0.00762 0.1074219,0.013672 0.00117,0.00612 -0.033728,0.038565 -0.076172,0.070312 -0.042482,0.031559 -0.077988,0.062312 -0.080078,0.068359 -0.00189,0.0062 0.00756,0.051824 0.023437,0.1015625 0.042747,0.1353449 0.045153,0.1355572 -0.064453,0.056641 C 1.0433422,6.0258375 0.99968319,6 0.99023438,6 c -0.009487,0 -0.0516839,0.026027 -0.09375,0.056641 -0.10945512,0.079786 -0.11042552,0.07902 -0.0683594,-0.052734 0.0154961,-0.047773 0.0292213,-0.092806 0.0292969,-0.099609 7.559e-5,-0.00692 -0.0377985,-0.0414 -0.0839844,-0.076172 -0.0460346,-0.034734 -0.0817647,-0.068549 -0.078125,-0.074219 0.003628,-0.00567 0.0539549,-0.00977 0.11132812,-0.00977 h 0.10351563 l 0.0175781,-0.046875 c 0.009827,-0.026041 0.0252661,-0.070066 0.0332031,-0.097656 0.007937,-0.029027 0.020226,-0.050781 0.0292969,-0.050781 z m 1.42773442,0 c 0.00907,0 0.020982,0.021679 0.029297,0.050781 0.00756,0.02759 0.021423,0.070002 0.03125,0.095703 l 0.017578,0.046875 0.1054687,0.00391 c 0.058696,0.00189 0.1062616,0.00762 0.1074219,0.013672 0.00117,0.00612 -0.031775,0.038565 -0.074219,0.070312 -0.042482,0.031559 -0.079941,0.062312 -0.082031,0.068359 -0.00189,0.0062 0.00952,0.051824 0.025391,0.1015625 0.042746,0.1353449 0.0432,0.1355572 -0.066406,0.056641 C 2.4691235,6.0258375 2.4274176,6 2.4179688,6 2.4084788,6 2.3662848,6.026027 2.3242188,6.056641 2.2147636,6.136427 2.2137932,6.135661 2.2558598,6.003907 2.2713558,5.956134 2.2831278,5.911101 2.2832038,5.904298 2.2832794,5.897378 2.2454048,5.862898 2.1992198,5.828126 2.1531848,5.793392 2.1194078,5.759577 2.1230478,5.753907 c 0.00363,-0.00567 0.052002,-0.00977 0.109375,-0.00977 h 0.1054687 l 0.017578,-0.046875 c 0.00983,-0.026041 0.023313,-0.070066 0.03125,-0.097656 0.00794,-0.029027 0.022179,-0.050781 0.03125,-0.050781 z m 1.4257812,0 c 0.00907,0 0.022935,0.021679 0.03125,0.050781 0.00756,0.02759 0.021423,0.070002 0.03125,0.095703 l 0.017578,0.046875 0.1054688,0.00391 c 0.058696,0.00189 0.1062578,0.00762 0.1074219,0.013672 0.00117,0.00612 -0.033728,0.038565 -0.076172,0.070312 -0.042482,0.031559 -0.077984,0.062312 -0.080078,0.068359 -0.00189,0.0062 0.00952,0.051824 0.025391,0.1015625 0.042746,0.1353449 0.0432,0.1355572 -0.066406,0.056641 C 3.8968578,6.0258375 3.8531988,6 3.84375,6 3.8344082,6 3.79142,6.0266629 3.75,6.0566406 3.6431412,6.1345099 3.6418641,6.1346067 3.6835938,6.0039062 3.6990898,5.956133 3.7108581,5.9111 3.7109375,5.9042969 c 7.56e-5,-0.00692 -0.037799,-0.0414 -0.083984,-0.076172 -0.046035,-0.034734 -0.081765,-0.068549 -0.078125,-0.074219 0.00363,-0.00567 0.053955,-0.00977 0.1113281,-0.00977 H 3.765625 l 0.017578,-0.046875 c 0.00983,-0.026041 0.023313,-0.070066 0.03125,-0.097656 0.00794,-0.029027 0.020226,-0.050781 0.029297,-0.050781 z m 1.4277344,0 c 0.00907,0 0.020982,0.021679 0.029297,0.050781 0.00756,0.02759 0.023376,0.070002 0.033203,0.095703 l 0.017578,0.046875 0.1054687,0.00391 c 0.058696,0.00189 0.1062578,0.00762 0.1074219,0.013672 0.00117,0.00612 -0.033728,0.038565 -0.076172,0.070312 -0.042482,0.031559 -0.077984,0.062312 -0.080078,0.068359 -0.00189,0.0062 0.00952,0.051824 0.025391,0.1015625 0.042746,0.1353449 0.0432,0.1355572 -0.066406,0.056641 C 5.3245922,6.0258375 5.2809332,6 5.2714844,6 5.2619944,6 5.2198004,6.026027 5.1777344,6.056641 5.0682793,6.136427 5.0673089,6.135661 5.1093754,6.003907 5.1248714,5.956134 5.1385924,5.911101 5.1386724,5.904298 5.138748,5.897378 5.1008734,5.862898 5.0546884,5.828126 5.0086534,5.793392 4.9729234,5.759577 4.9765634,5.753907 c 0.00359,-0.00567 0.053955,-0.00977 0.1113281,-0.00977 h 0.1035156 l 0.017578,-0.046875 c 0.00983,-0.026041 0.025266,-0.070066 0.033203,-0.097656 0.00794,-0.029027 0.020226,-0.050781 0.029297,-0.050781 z"
       transform="matrix(0.26458333,0,0,0.26458333,84.591072,55.019642)"
       id="path1544"
       inkscape:connector-curvature="0" />
  </g>
</svg>
